<?xml version="1.0" encoding="UTF-8"?>
<svg xmlns="http://www.w3.org/2000/svg" viewBox="0 0 903.3 1006.44">
  <defs>
    <style>
      .cls-1, .cls-2, .cls-3 {
        letter-spacing: -.02em;
      }

      .cls-1, .cls-4, .cls-5 {
        font-size: 18px;
      }

      .cls-1, .cls-5, .cls-6 {
        font-family: TimesNewRomanPS-BoldMT, 'Times New Roman';
        font-weight: 700;
      }

      .cls-7 {
        fill: #7bcd71;
      }

      .cls-7, .cls-8, .cls-9, .cls-10, .cls-11, .cls-12, .cls-13, .cls-14, .cls-15, .cls-16, .cls-17 {
        stroke-miterlimit: 10;
      }

      .cls-7, .cls-9 {
        stroke: #fff;
      }

      .cls-8 {
        stroke: #005ef4;
      }

      .cls-8, .cls-9, .cls-12, .cls-13, .cls-14, .cls-15, .cls-16, .cls-17 {
        fill: none;
      }

      .cls-10 {
        stroke: #7bcd71;
      }

      .cls-10, .cls-11, .cls-18, .cls-4, .cls-19, .cls-20, .cls-21, .cls-22, .cls-23, .cls-24, .cls-25, .cls-26 {
        fill: #fff;
      }

      .cls-2, .cls-27, .cls-28 {
        font-size: 12px;
      }

      .cls-2, .cls-27, .cls-28, .cls-4, .cls-19, .cls-20, .cls-21, .cls-22, .cls-23, .cls-24, .cls-25, .cls-26 {
        font-family: TimesNewRomanPSMT, 'Times New Roman';
      }

      .cls-27 {
        letter-spacing: -.08em;
      }

      .cls-11, .cls-14 {
        stroke: #97d1f2;
      }

      .cls-12 {
        stroke: #f76bb4;
      }

      .cls-13 {
        stroke: #afcddd;
      }

      .cls-15 {
        stroke: #f1e1ff;
      }

      .cls-16 {
        stroke: #99f283;
      }

      .cls-17 {
        stroke: #fca96b;
      }

      .cls-29 {
        letter-spacing: -.09em;
      }

      .cls-30 {
        letter-spacing: -.07em;
      }

      .cls-31 {
        fill: #202020;
      }

      .cls-32 {
        letter-spacing: -.11em;
      }

      .cls-33 {
        letter-spacing: -.06em;
      }

      .cls-34 {
        letter-spacing: -.04em;
      }

      .cls-19 {
        font-size: 14.21px;
      }

      .cls-20 {
        font-size: 23.24px;
      }

      .cls-21 {
        font-size: 19.41px;
      }

      .cls-22 {
        font-size: 33.01px;
      }

      .cls-23 {
        font-size: 11.91px;
      }

      .cls-24 {
        font-size: 11.22px;
      }

      .cls-25 {
        font-size: 10.67px;
      }

      .cls-26 {
        font-size: 11.39px;
      }

      .cls-6 {
        font-size: 36px;
      }
    </style>
  </defs>
  <g id="loire">
    <g id="Contour">
      <path id="CA_Roannais_Agglomération" class="cls-7" d="M109.64,264.67l-2.95-2.24-7.84-18.13-1.02-14.87-5.5-15.48,8.66-35.65-11.51-19.15-6.52-1.83,4.89-19.15-4.89-10.19v-13.44l8.96-4.28-11.61-23.02-1.02-13.85,3.26-8.56-6.33-10.84-7.36-6.06-2.81-11.26,5.63-4.33,16.17,4.55,3.1-18.4,39.84-5.63,5.85-11.26,5.63,1.3,8.01-2.38,2.6.87,3.25,5.85,1.73,8.88v14.51l-6.5,6.5-.43,12.12-4.11,8.66,16.67,10.61s31.39-4.33,36.37,3.68v9.96l10.61,17.32s26.2-2.17,26.41.87l2.38-1.08v7.14l-4.55,6.06,22.3,34.21,29.66,4.33,2.17,4.98-4.76.87,4.76,18.84-7.14,14.51,1.73,4.11,24.68,1.08,13.21-8.66,5.2-8.23s14.51-2.81,19.7-.22l4.55-3.46,9.09,3.9,12.99-4.33,8.01.22-3.46,7.14s1.52,8.44,8.88,4.76c0,0,6.93-3.46,4.55,4.11l.5,3.25s-8.73,1.95-9.59,11.48l6.06,4.33v3.46l6.71,11.48,5.85,3.46,6.5,10.18-24.9,22.95-14.29-14.29-7.36-.87-4.98-4.98s-7.58,4.55-15.16.22c0,0-11.69.87-11.04,2.38,0,0-3.68,8.66-2.17,12.34,0,0-5.63,3.25-5.63,8.66v6.93s11.48,10.61-.22,14.94l-4.98-3.46-5.63,3.46-9.74-6.06-8.44,4.98-18.62,1.08s-4.76-1.73-8.01,2.6h-19.05s-3.9,9.31-10.18,8.23c0,0,11.69,30.96,0,23.38l-10.83-5.2-19.92-1.08-9.74,5.41h-7.79l-2.38,4.11-14.72-14.51,10.18-5.85-8.23-5.2s6.93-14.07-1.08-19.7l-12.99-.87-8.66-5.41-25.77.65-7.79-8.23-7.06-.22Z"/>
      <path id="CC_Charlieu-Belmont" class="cls-18" d="M259.18,82.82l-19.92,16.43v7.14l-4.55,6.06,22.3,34.21,29.66,4.33,2.17,4.98-4.76.87,4.76,18.84-7.14,14.51,1.73,4.11,24.68,1.08,13.21-8.66,5.2-8.23s15.32-3.19,19.7-.22l4.55-3.46,9.09,3.9,12.99-4.33,8.01.22-3.46,7.14s1.03,9.19,8.88,4.76c0,0,7.36-2.79,4.55,4.11l.5,3.25s-9.27,1.91-9.59,11.48l6.06,4.33,21.69-.47,10.9-15.61v-8.84l5.2-2.81.5-13.96-2.89-3.63,1.73-9.66,6.94-6.77v-6.11l1.4-6.11,7.68-5.7,18.58-2.89s3.06-8.92,13.13-10.65l17.51,11.81h5.95l3.88-14.2s15.69-13.71,6.28-20.15c0,0-24.61-11.48-24.11-14.78,0,0-1.82-5.7,1.32-7.43s14.12-6.36,14.12-6.36l-.17-4.62-8.75-10.49h-12.8l-.33,5.95s-18.17,4.54-15.61,14.95l5.29,7.27s3.14,6.94-5.45,5.95c-8.59-.99-6.28.08-11.15-3.72l-7.43,5.78-5.53-3.14-6.19,11.89-5.37.5-4.46-2.73s-9.4,3.63-12.79,17.01l-19,.5-3.63-7.76s.25-3.39,3.47-2.23c0,0,13.54-12.96-6.61-19.82l-12.72,9.99-12.8-15.11-8.84,4.54s-2.06,1.98-5.62-.25l.5,11.31s.91,4.13-4.71,3.88c-5.62-.25-29.56-2.48-29.56-2.48l-.25-3.14-18.91-17.18-21.22,10.4s-3.22,1.9-7.76.21Z"/>
      <path id="Loire_Forez_Agglomération" class="cls-7" d="M42.14,396.2v3.57l-6.12,7.94,5.2,17.86-7.79,25.6s-5.44,8.04-13.23,8.66l-.25,6.31s3.46,7.17,20.9,10.51l8.04,8.29-6.18,11.25,12.12,14.35s5.78-10.51,9.51,0c3.72,10.51,8.42,13.48,8.42,13.48l5.69,1.98-2.47,4.58,3.09,7.54-3.83,11.62,2.1,10.39s17.19,21.15,17.68,29.93l9.15,10.64s-.12,17.31,16.08,18.92l10.14,1.11,2.1,8.29,14.22,11.41,17.82,6.72s22.35,21.1,23.76,28.29c0,0,1.88,7.03,7.82,10.47l-5.47,11.72,13.13,40.17,6.72,1.41s13.29,7.03,5,15.47c-8.28,8.44-8.91,10.78-8.91,10.78,0,0,5.47,12.97.94,16.72l3.13,5.31-9.07,5.31,2.5,6.1-28.45,14.22h-5.31s-3.13,11.25-7.03,10.78l-2.5,1.09-5.63,15.16,2.03,7.97v15.32l8.91,34.07,8.44-6.41v-14.07l10.94-7.03s.94-16.1,17.35-7.97c0,0,14.54-8.28,17.04-.16,2.5,8.13,4.38,13.44,4.38,13.44l6.88.63,9.22,25.79h3.44l1.25-15.63,7.82-5.31v-3.44s8.13-2.34,10-.16c1.88,2.19,10.16,16.88,13.13,16.57s7.5-14.07,7.03-18.44l11.72-3.59-5.31-9.38-8.6-1.09-.78-7.19s4.69-4.38-.63-6.25l-6.1-2.03-1.41-11.41-5.47,1.72-5.47-8.44,1.72-9.85-5.16-12.66,5.94.63,12.35,15.47,1.56,4.38,13.91-3.75-.31-15.47,5.85-2.28v4.01l16.06-1.76,19.45,11.79,14.68-18.32,8.28-.13,5.39-5.02,12.42.5,6.27,13.3,11.92-6.02,2.76-.25-1.25-5.52,7.4-5.77-5.02-10.04,5.02-7.53v-2.89s21.08-4.01,28.23.13c0,0,6.9-22.21,0-28.73l-12.04-14.8-.88-8.53s-3.76-6.77-20.07.63l-1.88-14.3s-14.8-10.91,7.65-19.19h9.66l-.63-7.4-11.54-15.31s-34.12-11.23-7.65-32.81l-2.63-5.27-6.4-.25s-4.27-2.13-3.89-5.39-2.01-18.69-2.01-18.69l-5.14,2.26s4.27-9.28-1.13-11.29c-5.39-2.01-13.93-4.89-13.93-4.89,0,0-6.52,0-.5-9.16,6.02-9.16,6.77-10.91,6.77-10.91l-6.65.13-4.39-5.65s-6.9-1.76-24.34,3.14c0,0-3.64,5.65-6.9.25l-8.66-7.65s4.27-12.29-3.39-16.69l-4.01-18.07,11.42-3.14-4.64-7.4,7.53-5.39-.38-11.72s6.02-10.61,7.03-22.28l-6.27.13-.5-7.28s-6.52-3.39-13.8-4.27l-9.66-21.7s-9.53,2.63-8.66,4.77-5.52,7.28-6.77,6.27-6.4-1.25-6.15-4.52-.13-5.02-.13-5.02l-15.93.25s-38.01,16.69-49.3,2.13l-4.27-14.55,2.26-4.64-19.19,16.43-16.31,1.38-4.77,4.01-20.07-22.71-8.94-1.4-6.42,5.5-5.37-3.67-15.06.39s-4.32-6.68-12.84,2.1c0,0-9.17-2.88-20.83,11.66l-5.11-8.25,1.83-17.29s8.12-4.45-2.62-13.1l-7.34-.13-4.45-6.55s-9.33-3.92-15.99,4.13Z"/>
      <path id="CC_du_Pays_d_x27_Urfé" class="cls-12" d="M109.64,264.67s-6.34,4.05-5.39,9.29l-13.74,5.72-10.01,8.82s-3.42,3.73-6.91,0l-8.5-4.61s-5.56-2.94-6.83,2.78-7.7,9.29-7.7,9.29l-20.49-6.43-5.72,6.43v3.97s2.22,8.82-.87,9.45l-4.45,3.97v17.08s13.58,4.61,17.08,7.07c3.49,2.46,2.7,7.78,12.39,13.66l8.98,17.24s3.18,4.45-.08,5.32c-3.26.87-3.97,1.11-3.97,1.11v4.84l-7.31,7.55h-12.15l3.18,8.72,5,.25s6.15-8.08,15.99-4.13l4.45,6.55,7.34.13s10.26,7.39,2.62,13.1l-1.83,17.29,5.11,8.25s10.45-13.99,20.83-11.66c0,0,7.87-8.59,12.84-2.1l15.06-.39,5.37,3.67,6.42-5.5-4.56-11.21s2.94-11.11,5.82-9.9,7.96,8.1,7.96,8.1c0,0,5.02,2.34,6.36-.87,1.34-3.21,7.63-8.36,7.63-8.36l6.96-1.67s2.21-4.88,5.22-.74c3.01,4.15,4.75-1.67,4.75-1.67l-1.54-6.22-1-2.94-9.03-4.75-1.14-12.31s8.76-12.65,15.46-4.01c6.69,8.63,10.37,11.11,10.37,11.11l9.84.13,6.96-12.65s2.68-3.75-1.2-5.82-11.57-8.83-11.57-8.83c0,0-4.64-21.64-7.83-24.78s-14.72-14.51-14.72-14.51l10.18-5.85-8.23-5.2s7.27-13.93-1.08-19.7l-12.99-.87-8.66-5.41-25.77.65-7.79-8.23-7.06-.22Z"/>
      <path id="CC_des_Vals_d_x27_Aix_et_Isable" class="cls-8" d="M296.41,378.41s-13.15,4.89,1,10.65l11.9-.88,8.27,20.17.63,9.4-10.65,1-12.99,20.25s-8.88,2.34-8.66,4.77-4.78,7.1-6.77,6.27-6.23-2.3-6.15-4.52-.13-5.02-.13-5.02l-15.93.25s-37.48,17-49.3,2.13l-4.27-14.55,2.26-4.64-19.19,16.43-16.31,1.38-4.77,4.01-20.07-22.71-8.94-1.4-4.56-11.21s2.38-20.31,13.78-1.81c0,0,3.76,2.74,6.36-.87s7.63-8.36,7.63-8.36l6.96-1.67s2.43-4.57,5.22-.74c2.78,3.83,4.75-1.67,4.75-1.67l-2.54-9.17-9.03-4.75-1.14-12.31s9.14-12.83,15.46-4.01c6.32,8.81,10.37,11.11,10.37,11.11l9.84.13,6.96-12.65s3.66-3.57-1.2-5.82-11.57-8.83-11.57-8.83l-7.83-24.78,2.38-4.11h7.79l9.74-5.41,19.92,1.08,10.83,5.2,1.34,4.79,8.64,2.51,11.28,12.78s-.88,13.91,7.02,3.26c0,0,20.42,2.76,20.8,16.04,0,0,9.15.25,8.64,8.14,0,0,4.13,9.27,2.26,10.15Z"/>
      <path id="CC_du_Pays_Entre_Loire_et_Rhône" class="cls-15" d="M335.47,386.43l-11.31-17.56-17.71-14.88-12.87,10.68s-2.81-5.11-8.07-4.55c0,0-.32-13.29-20.8-16.04,0,0-7.25,11.12-7.02-3.26l-11.28-12.78-8.64-2.51-1.34-4.79s12.73,9.14,0-23.38c0,0,4.66,2.08,10.18-8.23h19.05s2.32-3.97,8.01-2.6l18.62-1.08,8.44-4.98,9.74,6.06,5.63-3.46,4.98,3.46s12.1-2.82.22-14.94c0,0-2.6-10.88,5.63-15.59,0,0-2.41-4.49,2.17-12.34,0,0,1.88-2.87,11.04-2.38,0,0,6.27,4.44,15.16-.22l4.98,4.98,7.36.87,14.29,14.29,24.9-22.95,5.43,4.11s9.08-3.72,11.61-3.27l4.32,15.48-7.44,14.73-7.14-5.66-11.46,3.72-4.17-4.61-13.84-.15,1.79,9.82s7.44,6.7,15.77,7.74,27.23,17.11,15.77,23.51l12.2,11.31,6.1.3,16.22,9.82-5.36,10.57,5.36,3.13-13.99,11.91h-15.03s-9.23,3.27-8.93,15.77l-10.57-.89s-3.42,10.12-5.95,12.65c0,0-15.33,4.91-13.99,17.71,0,0-3.87,5.21-6.7,0l-1.04-3.42s-7.29,2.23-8.19-6.25l1.34-18.9s-9.38-5.95-9.23,1.04l-5.36.3s-4.91,11.91-8.93,9.97c-4.02-1.93-9.97,7.74-9.97,7.74Z"/>
      <path id="CC_de_Forez-Est" class="cls-7" d="M317.79,494.4c3.69-3.49,7.03-22.28,7.03-22.28l-6.27.13-.5-7.28c-1.66-1.82-13.8-4.27-13.8-4.27l-9.66-21.7,12.99-20.25,10.65-1-.63-9.4-8.27-20.17-11.9.88c-14.75-6.08-1-10.65-1-10.65.97-3.8-2.83-13.74-2.83-13.74l12.87-10.68,17.71,14.88,11.31,17.56c5.82-9.67,9.97-7.74,9.97-7.74,4.18,2.29,8.93-9.97,8.93-9.97l5.36-.3c.85-6.95,9.23-1.04,9.23-1.04,0,0-1.78,11.1-1.34,18.9s8.19,6.25,8.19,6.25c2.61,10.32,7.74,3.42,7.74,3.42-.43-14.04,13.99-17.71,13.99-17.71l5.95-12.65,10.57.89c-1.85-10.95,8.93-15.77,8.93-15.77h15.03l1.73,6.2c9.54,3.11,10.57,18.87,10.57,18.87l12.65,10.37h21.77l1.87,6.43s-1.04,7.67-5.39,9.74c-4.35,2.07-.83,6.63-.83,6.63l3.11,3.73c-7.46,3.73-5.6,12.44-5.6,12.44h-3.52l3.52,3.73-.83,4.77,4.35,10.99c-8.71-2.49-7.05,2.07-7.05,2.07l.41,17.41c-19.9,8.5-17.41,13.48-17.41,13.48l6.43,18.04,10.99,1.24,10.16-5.39c4.35,1.66,7.88,10.16,7.88,10.16l-7.46,6.63-3.11,14.93-7.26,8.71-1.24,10.16-4.98,3.11-1.66-5.18-23.63,4.35-5.18,8.91,2.9,8.29-2.07,7.46,7.88,12.96c6.84,1.97,3.32,7.56,3.32,7.56,0,0,1.66,3.32,5.18,6.84,3.52,3.52,31.93-6.84,31.93-6.84,8.5,5.18,12.44,19.28,12.44,19.28l-3.23,7.26s-1.12,2.28-.09,7.26-7.46,9.33-7.46,9.33l-9.95.21,3.32,8.09c-8.91,10.78-.21,12.02-.21,12.02,9.95,0,11.82,5.6,11.82,5.6l2.49,20.32-9.95.21-6.22,2.49-8.29-1.04-4.35-5.39-2.28-.62-5.6-8.09,1.24-3.43-10.37-14.6,12.23-17.83-6.43-9.54-17.21-3.52-17.41,6.22-6.43-1.04,2.49,26.95s.21-1.66-7.67,3.11c-7.88,4.77.83,8.71.83,8.71l17.83,4.56,11.4,10.99-6.22,6.01v12.23l-17.62-3.73-5.64-5.81-.63-7.4-11.54-15.31c-35.43-13.18-7.65-32.81-7.65-32.81l-2.63-5.27s-2.17,1.5-6.4-.25-3.89-5.39-3.89-5.39l-2.01-18.69-5.14,2.26c3.6-9.27-1.13-11.29-1.13-11.29,0,0-6.94-2.49-13.93-4.89s-.5-9.16-.5-9.16l6.77-10.91-6.65.13-4.39-5.65c-3.78.16-19.02-.57-24.34,3.14-5.61,3.91-6.9.25-6.9.25l-8.66-7.65c4.42-10.12-3.39-16.69-3.39-16.69l-4.01-18.07,11.42-3.14-4.64-7.4,7.53-5.39"/>
      <path id="CC_des_Monts_du_Lyonnais" class="cls-13" d="M527.01,632.53s4.51-17.83-27.15-23.73c0,0-5.29-17.74-12.44-19.28,0,0,6.02-5.93-1.01-10.54l-17.34-6.58,1.98-4.17-1.98-8.12,5.27-5.93-5.58-9.03-1.66-5.18-23.63,4.35-5.18,8.91,2.9,8.29-2.07,7.46,7.88,12.96s6.49.98,3.32,7.56l5.18,6.84s9.04,2.11,29.2-5.88c0,0,12.13-1.24,14.39,20.07l-2.45,5.5s-1.37,3.53-.09,7.26c0,0-.63,7.69-7.46,9.33l-9.95.21,3.32,8.09s-8.14,10.35-.21,12.02c0,0,10.02.24,11.82,5.6l1.7,13.84h14.37l12.95,9.28,13.39-19.97,3.29-10.09,4.17-7.68-16.9-11.41Z"/>
      <path id="Saint-Etienne_Métropole" class="cls-7" d="M563,651.18l-23.26.44-3.29,10.09-13.39,19.97-12.95-9.28h-14.37l.79,6.47-9.95.21-6.22,2.49-8.29-1.04-4.35-5.39-2.28-.62-5.6-8.09,1.24-3.43-10.37-14.6,12.23-17.83-6.43-9.54-17.21-3.52-17.41,6.22-6.43-1.04,2.49,26.95s-30.89,8.83,10.99,16.38l11.4,10.99-6.22,6.01v12.23l-17.62-3.73-5.64-5.81h-9.66s-21.52,8.32-7.65,19.19l1.88,14.3s13.48-7.4,20.07-.63l.88,8.53c-1.71,2.35,24.15,13.39,12.04,43.53,0,0-7.45-4.56-28.23-.13v2.89l-5.02,7.53,5.02,10.04-7.4,5.77,1.25,5.52-2.76.25-11.92,6.02-6.27-13.3-12.42-.5-5.39,5.02-8.28.13-14.68,18.32-19.45-11.79-16.06,1.76v-4.01l-5.85,2.28.31,15.47-13.91,3.75s-4.57-12.27-13.91-19.85l-5.94-.63,5.16,12.66-1.72,9.85,5.47,8.44,5.47-1.72,1.41,11.41s13.1,1.84,6.72,8.28l.78,7.19,8.6,1.09,5.31,9.38,6.58,3.7.44-5.49,8.34-7.24,22.38,1.98,1.76-7.46-8.12-9.44s20.41-9.22,23.7-7.9l13.39,8.56,17.12-7.24,8.12,3.95,5.27.88,7.68,11.63,8.89-2.19,1.86,13.61,11.41.88,4.17-4.83s6.8,2.41,8.12-.22l.44-6.14s18.65,3.07,19.09,4.61,2.19-6.58,2.19-6.58c0,0,9.66,6.58,11.63-12.51l12.07-2.41-.88-2.19,4.61,1.1,6.58-7.24s1.54-5.05,9.88-1.1l11.63-8.34,8.12-.22,6.8,10.09,1.98,8.12,10.53,12.51,4.61-7.02h4.39l7.24-3.51-2.85-4.39s10.31-8.34,19.31.44l7.02,5.05h9.88s2.63,13.83,11.85,8.78,10.97-11.63,10.97-11.63h10.75l16.02-7.68s-2.85-37.96,11.63-37.96c0,0-4.17-23.26,17.56-16.68,0,0,14.48-.88,15.58-29.84l-3.51-.44-3.29,3.07-6.58-9.22h-4.17s-5.71-7.9-1.32-12.95c0,0-1.98-12.07-3.29-13.83v-14.26s8.12-7.68,8.12-7.68l16.24-19.31-9.88-11.41-7.68,5.27-8.34.44-.44,9.66,7.02,9.22-8.12,3.29-8.78-9.44s-2.41-20.63-12.73-23.04l-7.46,5.05h-11.41l-10.97-11.19s-30.94,6.36-32.04,10.75l-5.27-4.39-6.8.44-.77-9Z"/>
      <path id="CC_du_Pilat_Rhodanien" class="cls-16" d="M658.47,896.45l26.48-18.53h13.9s5.63-8.6,15.89-8.94v-7.28l22.51-3.97s2.65-35.08-8.27-39.05l-1.65-14.23,10.21-9.93s-.28-15.89-4.92-16.55l2.65-7.28-12.91-15.22h2.98s2.32-14.89-14.56-20.52l-12.77,15.56-13.54-.34s1.2,26.72-15.58,29.84c0,0-21.14-7.85-17.56,16.68,0,0-14.21-3.44-11.63,37.96l-16.02,7.68,12.45,13.89s11.23-1.23,8.07,9.48l2.11,12.11,12.17,18.65Z"/>
      <path id="CC_des_Monts_du_Pilat" class="cls-17" d="M643.67,912.51v9.32l5.3,5.79v2.57h-9.16s-10.13-2.25-11.09,18l8.68,8.2-.16,10.77-12.38,9.32s-24.92-8.04-33.44,6.91l-11.9-4.82-8.04,8.68h-11.57s-38.42-27.01-37.62-38.58h-10.29s-20.9,8.36-21.38,16.88l-7.39-4.02-3.54,2.09-13.82-16.56,6.27-6.75v-6.91l4.66-3.7s2.73-6.27-8.84-7.88l-15.27-14.15,20.09-17.2h3.22s-8.33-24.79-20.64-27.1l2.19-6.58s9.8,6.48,11.63-12.51l12.07-2.41-.88-2.19,4.61,1.1,6.58-7.24s.92-5.05,9.88-1.1l11.63-8.34,8.12-.22,6.8,10.09,1.98,8.12,10.53,12.51,4.61-7.02h4.39l7.24-3.51-2.85-4.39s6.62-10.81,26.33,5.49h9.88s5.26,23.81,22.82-2.85h10.75l12.45,13.89s11.18-1.42,8.07,9.48l2.11,12.11,12.17,18.65s8.82,10.36-3.71,11.96l-11.09,4.1Z"/>
      <path id="CA_Roannais_Agglomération-2" data-name="CA_Roannais_Agglomération" class="cls-14" d="M109.64,264.67l-2.95-2.24-7.84-18.13-1.02-14.87-5.5-15.48,8.66-35.65-11.51-19.15-6.52-1.83,4.89-19.15-4.89-10.19v-13.44l8.96-4.28-11.61-23.02-1.02-13.85,3.26-8.56-6.33-10.84-7.36-6.06-2.81-11.26,5.63-4.33,16.17,4.55,3.1-18.4,39.84-5.63,5.85-11.26,5.63,1.3,8.01-2.38,2.6.87,3.25,5.85,1.73,8.88v14.51l-6.5,6.5-.43,12.12-4.11,8.66,16.67,10.61s31.39-4.33,36.37,3.68v9.96l10.61,17.32s26.2-2.17,26.41.87l2.38-1.08v7.14l-4.55,6.06,22.3,34.21,29.66,4.33,2.17,4.98-4.76.87,4.76,18.84-7.14,14.51,1.73,4.11,24.68,1.08,13.21-8.66,5.2-8.23s14.51-2.81,19.7-.22l4.55-3.46,9.09,3.9,12.99-4.33,8.01.22-3.46,7.14s1.52,8.44,8.88,4.76c0,0,6.93-3.46,4.55,4.11l.5,3.25s-8.73,1.95-9.59,11.48l6.06,4.33v3.46l6.71,11.48,5.85,3.46,6.5,10.18-24.9,22.95-14.29-14.29-7.36-.87-4.98-4.98s-7.58,4.55-15.16.22c0,0-11.69.87-11.04,2.38,0,0-3.68,8.66-2.17,12.34,0,0-5.63,3.25-5.63,8.66v6.93s11.48,10.61-.22,14.94l-4.98-3.46-5.63,3.46-9.74-6.06-8.44,4.98-18.62,1.08s-4.76-1.73-8.01,2.6h-19.05s-3.9,9.31-10.18,8.23c0,0,11.69,30.96,0,23.38l-10.83-5.2-19.92-1.08-9.74,5.41h-7.79l-2.38,4.11-14.72-14.51,10.18-5.85-8.23-5.2s6.93-14.07-1.08-19.7l-12.99-.87-8.66-5.41-25.77.65-7.79-8.23-7.06-.22Z"/>
      <path id="CC_Charlieu-Belmont-2" data-name="CC_Charlieu-Belmont" class="cls-10" d="M259.18,82.82l-19.92,16.43v7.14l-4.55,6.06,22.3,34.21,29.66,4.33,2.17,4.98-4.76.87,4.76,18.84-7.14,14.51,1.73,4.11,24.68,1.08,13.21-8.66,5.2-8.23s15.32-3.19,19.7-.22l4.55-3.46,9.09,3.9,12.99-4.33,8.01.22-3.46,7.14s1.03,9.19,8.88,4.76c0,0,7.36-2.79,4.55,4.11l.5,3.25s-9.27,1.91-9.59,11.48l6.06,4.33,21.69-.47,10.9-15.61v-8.84l5.2-2.81.5-13.96-2.89-3.63,1.73-9.66,6.94-6.77v-6.11l1.4-6.11,7.68-5.7,18.58-2.89s3.06-8.92,13.13-10.65l17.51,11.81h5.95l3.88-14.2s15.69-13.71,6.28-20.15c0,0-24.61-11.48-24.11-14.78,0,0-1.82-5.7,1.32-7.43,3.14-1.73,14.12-6.36,14.12-6.36l-.17-4.62-8.75-10.49h-12.8l-.33,5.95s-18.17,4.54-15.61,14.95l5.29,7.27s3.14,6.94-5.45,5.95c-8.59-.99-6.28.08-11.15-3.72l-7.43,5.78-5.53-3.14-6.19,11.89-5.37.5-4.46-2.73s-9.4,3.63-12.79,17.01l-19,.5-3.63-7.76s.25-3.39,3.47-2.23c0,0,13.54-12.96-6.61-19.82l-12.72,9.99-12.8-15.11-8.84,4.54s-2.06,1.98-5.62-.25l.5,11.31s.91,4.13-4.71,3.88-29.56-2.48-29.56-2.48l-.25-3.14-18.91-17.18-21.22,10.4s-3.22,1.9-7.76.21Z"/>
      <path id="Loire_Forez_Agglomération-2" data-name="Loire_Forez_Agglomération" class="cls-9" d="M42.14,396.2v3.57l-6.12,7.94,5.2,17.86-7.79,25.6s-5.44,8.04-13.23,8.66l-.25,6.31s3.46,7.17,20.9,10.51l8.04,8.29-6.18,11.25,12.12,14.35s5.78-10.51,9.51,0c3.72,10.51,8.42,13.48,8.42,13.48l5.69,1.98-2.47,4.58,3.09,7.54-3.83,11.62,2.1,10.39s17.19,21.15,17.68,29.93l9.15,10.64s-.12,17.31,16.08,18.92l10.14,1.11,2.1,8.29,14.22,11.41,17.82,6.72s22.35,21.1,23.76,28.29c0,0,1.88,7.03,7.82,10.47l-5.47,11.72,13.13,40.17,6.72,1.41s13.29,7.03,5,15.47c-8.28,8.44-8.91,10.78-8.91,10.78,0,0,5.47,12.97.94,16.72l3.13,5.31-9.07,5.31,2.5,6.1-28.45,14.22h-5.31s-3.13,11.25-7.03,10.78l-2.5,1.09-5.63,15.16,2.03,7.97v15.32l8.91,34.07,8.44-6.41v-14.07l10.94-7.03s.94-16.1,17.35-7.97c0,0,14.54-8.28,17.04-.16,2.5,8.13,4.38,13.44,4.38,13.44l6.88.63,9.22,25.79h3.44l1.25-15.63,7.82-5.31v-3.44s8.13-2.34,10-.16,10.16,16.88,13.13,16.57,7.5-14.07,7.03-18.44l11.72-3.59-5.31-9.38-8.6-1.09-.78-7.19s4.69-4.38-.63-6.25l-6.1-2.03-1.41-11.41-5.47,1.72-5.47-8.44,1.72-9.85-5.16-12.66,5.94.63,12.35,15.47,1.56,4.38,13.91-3.75-.31-15.47,5.85-2.28v4.01l16.06-1.76,19.45,11.79,14.68-18.32,8.28-.13,5.39-5.02,12.42.5,6.27,13.3,11.92-6.02,2.76-.25-1.25-5.52,7.4-5.77-5.02-10.04,5.02-7.53v-2.89s21.08-4.01,28.23.13c0,0,6.9-22.21,0-28.73l-12.04-14.8-.88-8.53s-3.76-6.77-20.07.63l-1.88-14.3s-14.8-10.91,7.65-19.19h9.66l-.63-7.4-11.54-15.31s-34.12-11.23-7.65-32.81l-2.63-5.27-6.4-.25s-4.27-2.13-3.89-5.39-2.01-18.69-2.01-18.69l-5.14,2.26s4.27-9.28-1.13-11.29-13.93-4.89-13.93-4.89c0,0-6.52,0-.5-9.16,6.02-9.16,6.77-10.91,6.77-10.91l-6.65.13-4.39-5.65s-6.9-1.76-24.34,3.14c0,0-3.64,5.65-6.9.25l-8.66-7.65s4.27-12.29-3.39-16.69l-4.01-18.07,11.42-3.14-4.64-7.4,7.53-5.39-.38-11.72s6.02-10.61,7.03-22.28l-6.27.13-.5-7.28s-6.52-3.39-13.8-4.27l-9.66-21.7s-9.53,2.63-8.66,4.77-5.52,7.28-6.77,6.27-6.4-1.25-6.15-4.52-.13-5.02-.13-5.02l-15.93.25s-38.01,16.69-49.3,2.13l-4.27-14.55,2.26-4.64-19.19,16.43-16.31,1.38-4.77,4.01-20.07-22.71-8.94-1.4-6.42,5.5-5.37-3.67-15.06.39s-4.32-6.68-12.84,2.1c0,0-9.17-2.88-20.83,11.66l-5.11-8.25,1.83-17.29s8.12-4.45-2.62-13.1l-7.34-.13-4.45-6.55s-9.33-3.92-15.99,4.13Z"/>
      <path id="CC_du_Pays_d_x27_Urfé-2" data-name="CC_du_Pays_d_x27_Urfé" class="cls-10" d="M109.64,264.67s-6.34,4.05-5.39,9.29l-13.74,5.72-10.01,8.82s-3.42,3.73-6.91,0l-8.5-4.61s-5.56-2.94-6.83,2.78-7.7,9.29-7.7,9.29l-20.49-6.43-5.72,6.43v3.97s2.22,8.82-.87,9.45l-4.45,3.97v17.08s13.58,4.61,17.08,7.07c3.49,2.46,2.7,7.78,12.39,13.66l8.98,17.24s3.18,4.45-.08,5.32-3.97,1.11-3.97,1.11v4.84l-7.31,7.55h-12.15l3.18,8.72,5,.25s6.15-8.08,15.99-4.13l4.45,6.55,7.34.13s10.26,7.39,2.62,13.1l-1.83,17.29,5.11,8.25s10.45-13.99,20.83-11.66c0,0,7.87-8.59,12.84-2.1l15.06-.39,5.37,3.67,6.42-5.5-4.56-11.21s2.94-11.11,5.82-9.9c2.88,1.2,7.96,8.1,7.96,8.1,0,0,5.02,2.34,6.36-.87,1.34-3.21,7.63-8.36,7.63-8.36l6.96-1.67s2.21-4.88,5.22-.74,4.75-1.67,4.75-1.67l-1.54-6.22-1-2.94-9.03-4.75-1.14-12.31s8.76-12.65,15.46-4.01,10.37,11.11,10.37,11.11l9.84.13,6.96-12.65s2.68-3.75-1.2-5.82c-3.88-2.07-11.57-8.83-11.57-8.83,0,0-4.64-21.64-7.83-24.78-3.19-3.14-14.72-14.51-14.72-14.51l10.18-5.85-8.23-5.2s7.27-13.93-1.08-19.7l-12.99-.87-8.66-5.41-25.77.65-7.79-8.23-7.06-.22Z"/>
      <path id="CC_des_Vals_d_x27_Aix_et_Isable-2" data-name="CC_des_Vals_d_x27_Aix_et_Isable" class="cls-10" d="M296.41,378.41s-13.15,4.89,1,10.65l11.9-.88,8.27,20.17.63,9.4-10.65,1-12.99,20.25s-8.88,2.34-8.66,4.77-4.78,7.1-6.77,6.27c-1.99-.82-6.23-2.3-6.15-4.52s-.13-5.02-.13-5.02l-15.93.25s-37.48,17-49.3,2.13l-4.27-14.55,2.26-4.64-19.19,16.43-16.31,1.38-4.77,4.01-20.07-22.71-8.94-1.4-4.56-11.21s2.38-20.31,13.78-1.81c0,0,3.76,2.74,6.36-.87,2.59-3.61,7.63-8.36,7.63-8.36l6.96-1.67s2.43-4.57,5.22-.74c2.78,3.83,4.75-1.67,4.75-1.67l-2.54-9.17-9.03-4.75-1.14-12.31s9.14-12.83,15.46-4.01,10.37,11.11,10.37,11.11l9.84.13,6.96-12.65s3.66-3.57-1.2-5.82-11.57-8.83-11.57-8.83l-7.83-24.78,2.38-4.11h7.79l9.74-5.41,19.92,1.08,10.83,5.2,1.34,4.79,8.64,2.51,11.28,12.78s-.88,13.91,7.02,3.26c0,0,20.42,2.76,20.8,16.04,0,0,9.15.25,8.64,8.14,0,0,4.13,9.27,2.26,10.15Z"/>
      <path id="CC_du_Pays_Entre_Loire_et_Rhône-2" data-name="CC_du_Pays_Entre_Loire_et_Rhône" class="cls-10" d="M335.47,386.43l-11.31-17.56-17.71-14.88-12.87,10.68s-2.81-5.11-8.07-4.55c0,0-.32-13.29-20.8-16.04,0,0-7.25,11.12-7.02-3.26l-11.28-12.78-8.64-2.51-1.34-4.79s12.73,9.14,0-23.38c0,0,4.66,2.08,10.18-8.23h19.05s2.32-3.97,8.01-2.6l18.62-1.08,8.44-4.98,9.74,6.06,5.63-3.46,4.98,3.46s12.1-2.82.22-14.94c0,0-2.6-10.88,5.63-15.59,0,0-2.41-4.49,2.17-12.34,0,0,1.88-2.87,11.04-2.38,0,0,6.27,4.44,15.16-.22l4.98,4.98,7.36.87,14.29,14.29,24.9-22.95,5.43,4.11s9.08-3.72,11.61-3.27l4.32,15.48-7.44,14.73-7.14-5.66-11.46,3.72-4.17-4.61-13.84-.15,1.79,9.82s7.44,6.7,15.77,7.74c8.33,1.04,27.23,17.11,15.77,23.51l12.2,11.31,6.1.3,16.22,9.82-5.36,10.57,5.36,3.13-13.99,11.91h-15.03s-9.23,3.27-8.93,15.77l-10.57-.89s-3.42,10.12-5.95,12.65c0,0-15.33,4.91-13.99,17.71,0,0-3.87,5.21-6.7,0l-1.04-3.42s-7.29,2.23-8.19-6.25l1.34-18.9s-9.38-5.95-9.23,1.04l-5.36.3s-4.91,11.91-8.93,9.97c-4.02-1.93-9.97,7.74-9.97,7.74Z"/>
      <path id="CC_de_Forest_Est" class="cls-9" d="M317.79,494.4c3.69-3.49,7.03-22.28,7.03-22.28l-6.27.13-.5-7.28c-1.66-1.82-13.8-4.27-13.8-4.27l-9.66-21.7,12.99-20.25,10.65-1-.63-9.4-8.27-20.17-11.9.88c-14.75-6.08-1-10.65-1-10.65.97-3.8-2.83-13.74-2.83-13.74l12.87-10.68,17.71,14.88,11.31,17.56c5.82-9.67,9.97-7.74,9.97-7.74,4.18,2.29,8.93-9.97,8.93-9.97l5.36-.3c.85-6.95,9.23-1.04,9.23-1.04,0,0-1.78,11.1-1.34,18.9s8.19,6.25,8.19,6.25c2.61,10.32,7.74,3.42,7.74,3.42-.43-14.04,13.99-17.71,13.99-17.71l5.95-12.65,10.57.89c-1.85-10.95,8.93-15.77,8.93-15.77h15.03l1.73,6.2c9.54,3.11,10.57,18.87,10.57,18.87l12.65,10.37h21.77l1.87,6.43s-1.04,7.67-5.39,9.74-.83,6.63-.83,6.63l3.11,3.73c-7.46,3.73-5.6,12.44-5.6,12.44h-3.52l3.52,3.73-.83,4.77,4.35,10.99c-8.71-2.49-7.05,2.07-7.05,2.07l.41,17.41c-19.9,8.5-17.41,13.48-17.41,13.48l6.43,18.04,10.99,1.24,10.16-5.39c4.35,1.66,7.88,10.16,7.88,10.16l-7.46,6.63-3.11,14.93-7.26,8.71-1.24,10.16-4.98,3.11-1.66-5.18-23.63,4.35-5.18,8.91,2.9,8.29-2.07,7.46,7.88,12.96c6.84,1.97,3.32,7.56,3.32,7.56,0,0,1.66,3.32,5.18,6.84,3.52,3.52,31.93-6.84,31.93-6.84,8.5,5.18,12.44,19.28,12.44,19.28l-3.23,7.26s-1.12,2.28-.09,7.26-7.46,9.33-7.46,9.33l-9.95.21,3.32,8.09c-8.91,10.78-.21,12.02-.21,12.02,9.95,0,11.82,5.6,11.82,5.6l2.49,20.32-9.95.21-6.22,2.49-8.29-1.04-4.35-5.39-2.28-.62-5.6-8.09,1.24-3.43-10.37-14.6,12.23-17.83-6.43-9.54-17.21-3.52-17.41,6.22-6.43-1.04,2.49,26.95s.21-1.66-7.67,3.11.83,8.71.83,8.71l17.83,4.56,11.4,10.99-6.22,6.01v12.23l-17.62-3.73-5.64-5.81-.63-7.4-11.54-15.31c-35.43-13.18-7.65-32.81-7.65-32.81l-2.63-5.27s-2.17,1.5-6.4-.25-3.89-5.39-3.89-5.39l-2.01-18.69-5.14,2.26c3.6-9.27-1.13-11.29-1.13-11.29,0,0-6.94-2.49-13.93-4.89s-.5-9.16-.5-9.16l6.77-10.91-6.65.13-4.39-5.65c-3.78.16-19.02-.57-24.34,3.14-5.61,3.91-6.9.25-6.9.25l-8.66-7.65c4.42-10.12-3.39-16.69-3.39-16.69l-4.01-18.07,11.42-3.14-4.64-7.4,7.53-5.39-.38-11.72Z"/>
      <path id="CC_des_Monts_du_Lyonnais-2" data-name="CC_des_Monts_du_Lyonnais" class="cls-11" d="M527.01,632.53s4.51-17.83-27.15-23.73c0,0-5.29-17.74-12.44-19.28,0,0,6.02-5.93-1.01-10.54l-17.34-6.58,1.98-4.17-1.98-8.12,5.27-5.93-5.58-9.03-1.66-5.18-23.63,4.35-5.18,8.91,2.9,8.29-2.07,7.46,7.88,12.96s6.49.98,3.32,7.56l5.18,6.84s9.04,2.11,29.2-5.88c0,0,12.13-1.24,14.39,20.07l-2.45,5.5s-1.37,3.53-.09,7.26c0,0-.63,7.69-7.46,9.33l-9.95.21,3.32,8.09s-8.14,10.35-.21,12.02c0,0,10.02.24,11.82,5.6l1.7,13.84h14.37l12.95,9.28,13.39-19.97,3.29-10.09,4.17-7.68-16.9-11.41Z"/>
      <path id="Saint-Etienne_Métropole-2" data-name="Saint-Etienne_Métropole" class="cls-9" d="M563,651.18l-23.26.44-3.29,10.09-13.39,19.97-12.95-9.28h-14.37l.79,6.47-9.95.21-6.22,2.49-8.29-1.04-4.35-5.39-2.28-.62-5.6-8.09,1.24-3.43-10.37-14.6,12.23-17.83-6.43-9.54-17.21-3.52-17.41,6.22-6.43-1.04,2.49,26.95s-30.89,8.83,10.99,16.38l11.4,10.99-6.22,6.01v12.23l-17.62-3.73-5.64-5.81h-9.66s-21.52,8.32-7.65,19.19l1.88,14.3s13.48-7.4,20.07-.63l.88,8.53c-1.71,2.35,24.15,13.39,12.04,43.53,0,0-7.45-4.56-28.23-.13v2.89l-5.02,7.53,5.02,10.04-7.4,5.77,1.25,5.52-2.76.25-11.92,6.02-6.27-13.3-12.42-.5-5.39,5.02-8.28.13-14.68,18.32-19.45-11.79-16.06,1.76v-4.01l-5.85,2.28.31,15.47-13.91,3.75s-4.57-12.27-13.91-19.85l-5.94-.63,5.16,12.66-1.72,9.85,5.47,8.44,5.47-1.72,1.41,11.41s13.1,1.84,6.72,8.28l.78,7.19,8.6,1.09,5.31,9.38,6.58,3.7.44-5.49,8.34-7.24,22.38,1.98,1.76-7.46-8.12-9.44s20.41-9.22,23.7-7.9l13.39,8.56,17.12-7.24,8.12,3.95,5.27.88,7.68,11.63,8.89-2.19,1.86,13.61,11.41.88,4.17-4.83s6.8,2.41,8.12-.22l.44-6.14s18.65,3.07,19.09,4.61,2.19-6.58,2.19-6.58c0,0,9.66,6.58,11.63-12.51l12.07-2.41-.88-2.19,4.61,1.1,6.58-7.24s1.54-5.05,9.88-1.1l11.63-8.34,8.12-.22,6.8,10.09,1.98,8.12,10.53,12.51,4.61-7.02h4.39l7.24-3.51-2.85-4.39s10.31-8.34,19.31.44l7.02,5.05h9.88s2.63,13.83,11.85,8.78c9.22-5.05,10.97-11.63,10.97-11.63h10.75l16.02-7.68s-2.85-37.96,11.63-37.96c0,0-4.17-23.26,17.56-16.68,0,0,14.48-.88,15.58-29.84l-3.51-.44-3.29,3.07-6.58-9.22h-4.17s-5.71-7.9-1.32-12.95c0,0-1.98-12.07-3.29-13.83v-14.26s8.12-7.68,8.12-7.68l16.24-19.31-9.88-11.41-7.68,5.27-8.34.44-.44,9.66,7.02,9.22-8.12,3.29-8.78-9.44s-2.41-20.63-12.73-23.04l-7.46,5.05h-11.41l-10.97-11.19s-30.94,6.36-32.04,10.75l-5.27-4.39-6.8.44-.77-9Z"/>
      <path id="CC_du_Pilat_Rhodanien-2" data-name="CC_du_Pilat_Rhodanien" class="cls-7" d="M658.47,896.45l26.48-18.53h13.9s5.63-8.6,15.89-8.94v-7.28l22.51-3.97s2.65-35.08-8.27-39.05l-1.65-14.23,10.21-9.93s-.28-15.89-4.92-16.55l2.65-7.28-12.91-15.22h2.98s2.32-14.89-14.56-20.52l-12.77,15.56-13.54-.34s1.2,26.72-15.58,29.84c0,0-21.14-7.85-17.56,16.68,0,0-14.21-3.44-11.63,37.96l-16.02,7.68,12.45,13.89s11.23-1.23,8.07,9.48l2.11,12.11,12.17,18.65Z"/>
      <path id="CC_des_Monts_du_Pilat-2" data-name="CC_des_Monts_du_Pilat" class="cls-10" d="M643.67,912.51v9.32l5.3,5.79v2.57h-9.16s-10.13-2.25-11.09,18l8.68,8.2-.16,10.77-12.38,9.32s-24.92-8.04-33.44,6.91l-11.9-4.82-8.04,8.68h-11.57s-38.42-27.01-37.62-38.58h-10.29s-20.9,8.36-21.38,16.88l-7.39-4.02-3.54,2.09-13.82-16.56,6.27-6.75v-6.91l4.66-3.7s2.73-6.27-8.84-7.88l-15.27-14.15,20.09-17.2h3.22s-8.33-24.79-20.64-27.1l2.19-6.58s9.8,6.48,11.63-12.51l12.07-2.41-.88-2.19,4.61,1.1,6.58-7.24s.92-5.05,9.88-1.1l11.63-8.34,8.12-.22,6.8,10.09,1.98,8.12,10.53,12.51,4.61-7.02h4.39l7.24-3.51-2.85-4.39s6.62-10.81,26.33,5.49h9.88s5.26,23.81,22.82-2.85h10.75l12.45,13.89s11.18-1.42,8.07,9.48l2.11,12.11,12.17,18.65s8.82,10.36-3.71,11.96l-11.09,4.1Z"/>
      <text class="cls-28" transform="translate(234.71 711.61)"><tspan x="0" y="0">Loire Forez</tspan><tspan class="cls-33" x="56.31" y="0"> </tspan><tspan x="58.65" y="0">Agglomération</tspan></text>
      <text class="cls-28" transform="translate(421.73 818.44)"><tspan x="0" y="0">Saint-Etienne Métropole</tspan></text>
      <text class="cls-28" transform="translate(351.26 462.67)"><tspan x="0" y="0">CC de Forez-Est</tspan></text>
      <text class="cls-28" transform="translate(143.21 223.49)"><tspan x="0" y="0">C</tspan><tspan class="cls-33" x="8" y="0">A</tspan><tspan x="16.01" y="0" xml:space="preserve"> Roannais</tspan><tspan class="cls-33" x="63.67" y="0"> </tspan><tspan x="66.01" y="0">Agglomération</tspan></text>
      <text class="cls-28" transform="translate(262.17 120.5)"><tspan x="0" y="0">CC Charlieu-Belmont</tspan></text>
      <text class="cls-28" transform="translate(650.08 836.19)"><tspan x="0" y="0">CC du Pilat Rhodanien</tspan></text>
      <text class="cls-28" transform="translate(64.49 364.08)"><tspan x="0" y="0">CC du Pays d’Urfé</tspan></text>
      <text class="cls-28" transform="translate(509.7 893.42)"><tspan x="0" y="0">CC des Monts du Pilat</tspan></text>
      <text class="cls-28" transform="translate(167.11 407.39)"><tspan x="0" y="0">CC des</tspan><tspan class="cls-3" x="35" y="0"> </tspan><tspan class="cls-32" x="37.79" y="0">V</tspan><tspan x="45.12" y="0" xml:space="preserve">als d’Aix et  Isable</tspan></text>
      <text class="cls-28" transform="translate(262.17 324)"><tspan x="0" y="0">CC du Pays Entre Loire et Rhône</tspan></text>
      <text class="cls-28" transform="translate(519.83 587.52)"><tspan x="0" y="0">CC des Monts du </tspan><tspan class="cls-33" x="86.68" y="0">L</tspan><tspan x="93.35" y="0">yonnais</tspan></text>
      <g>
        <path class="cls-31" d="M516.93,586.38c.02-.09,0-.28-.07-.24l-.04.33.11-.09Z"/>
        <path class="cls-31" d="M516.43,585.78c-.08.16-.16.45-.1.75.07-.32.1-.19.17-.57.07-.04.13.1.12.22.02-.09.11.07.14-.14-.1-.25-.22-.26-.33-.04-.03-.07,0-.16,0-.22Z"/>
        <path class="cls-31" d="M509.47,585.52l.05.04s-.03-.03-.05-.04Z"/>
        <path class="cls-31" d="M505.16,585.5s.04-.04.05-.07c-.03.02-.05.04-.05.07Z"/>
        <path class="cls-31" d="M504.41,585.16s.03.01.04.02c-.02-.03-.03-.05-.04-.02Z"/>
        <path class="cls-31" d="M509.47,585.52l-.12-.1c0,.11.06.08.12.1Z"/>
        <path class="cls-31" d="M515.5,586.62s.04-.05.06-.09c-.02.02-.04.03-.06.04,0,.02,0,.03,0,.05Z"/>
        <path class="cls-31" d="M511.36,585.19h.03s.02-.09.02-.14l-.06.14Z"/>
        <path class="cls-31" d="M512.81,585.08s-.03.27-.04.39c.01-.12.04-.17.06-.2,0-.05,0-.12-.02-.2Z"/>
        <path class="cls-31" d="M515.14,585.49l.04-.04s-.03.02-.04.04Z"/>
        <path class="cls-31" d="M510.31,585.16s-.01-.08-.02-.1c0,.04,0,.07.02.1Z"/>
        <path class="cls-31" d="M469.68,588.77s0-.03,0-.05c0,.03,0,.05,0,.05Z"/>
        <path class="cls-31" d="M467.94,587.44l.02-.02c0-.05,0-.11,0-.16l-.02.17Z"/>
        <path class="cls-31" d="M503.06,584.85s0,0,0,0c.03-.03.01-.03,0,0Z"/>
        <path class="cls-31" d="M490.72,585.51c.15.25-.22.33,0,.6-.02-.11.18-.44,0-.6Z"/>
        <path class="cls-31" d="M515.46,586.58s-.04,0-.06,0c.03,0,.05,0,.06,0Z"/>
        <path class="cls-31" d="M490.73,586.12s0,0,0,0l.02.03s-.01-.02-.02-.03Z"/>
        <path class="cls-31" d="M499.96,585.14s.02.09.04.12c0-.03-.01-.06-.04-.12Z"/>
        <path class="cls-31" d="M502.29,585.45l-.06-.04s.04.03.06.04Z"/>
        <path class="cls-31" d="M498.78,585.58s-.04-.06-.08-.02c0,.01,0,.02.01.03.01-.04.03-.06.07-.01Z"/>
        <path class="cls-31" d="M497.53,585.62s.02.04.03.06c.01,0,.03-.01.04-.02l-.06-.04Z"/>
        <path class="cls-31" d="M473.47,588.5c-.03-.08-.05-.16-.07-.25.03.2-.15.28.07.25Z"/>
        <path class="cls-31" d="M515.5,586.46c0,.07-.01.11-.03.12.01,0,.03,0,.04-.02,0-.04,0-.08,0-.11Z"/>
        <path class="cls-31" d="M498.81,587.79l-.2-.03c.06.03.13.04.2.03Z"/>
        <path class="cls-31" d="M482.41,588.13l-.04.04s.03,0,.04-.04Z"/>
        <path class="cls-31" d="M498.03,587.82c-.04-.1-.08-.15-.12-.19,0,.02-.02.04-.02.07l.14.12Z"/>
        <path class="cls-31" d="M473.4,588.24s0,0,0,0c0,0,0,0,0,0Z"/>
        <path class="cls-31" d="M472.12,588.96c.19,0,.08-.36.11-.58.22-.11.11.27.2.45.14-.1.23-.45.34-.44.01.06.03.08.01.16.14-.3.44-.03.6-.41.01.03.02.06.03.09-.03-.18-.05-.37-.05-.51.08,0,.15-.24.19,0-.05,0-.05.09-.07.17l.08-.11c.09.34-.12.12-.11.38.17-.12.36-.41.5-.32.04.34-.31.13-.12.42l-.21-.12c.18.53-.13-.03.04.53.27.09.3-.18.57-.09.05-.19-.03-.28.02-.47.37-.35.33.84.6.38.06-.23.08-.66.29-.44l-.05.39c.26.03.13-.56.41-.31-.04.15-.2.13-.16.18.19.3.12-.22.25-.23l.04.34c.28-.06.57-.32.88-.39-.01.1-.06.21.01.31.38-.18.83.01,1.21.2l.13-.3s.07.13.03.19c.15.11,0-.19.07-.3.08-.02.12.16.07.25.25-.26.71-.56,1-.26l-.05.09c.22.11.22-.61.42-.34l-.04.05c.46.11.96-.18,1.33.25.05-.42.46.17.47-.42.27.28.2.39.58.57.1.02.13-.37.25-.44v.31s.17-.33.17-.33l.1.37.11-.08s-.1-.13-.1-.22c.17-.15.44.2.45.36l.41-.28c0,.12-.07.17-.13.25.21-.32.05.32.25.03-.03-.07,0-.18.01-.25.11.18.34.18.51.09l-.03.21c.32.04.66-.13,1.01-.14-.13-.09-.11-.46-.01-.5l.05.32c.06-.2-.11-.12.02-.37.13.03.1.37.03.48l.16-.12c.01.1-.02.15-.03.27.06-.2.29.32.37-.04v.1c.36-.01.52-.13.81-.15,0-.28.11-.22.19-.45.21.08.46.29.71.26.17-.15.04-.24.12-.41.02.26.27.22.15.41.3-.05.39-.07.76-.29-.05-.1-.09-.15-.07-.24.07-.04.16.1.16.22l-.02.03c.42-.4,1.02.71,1.35.16l-.02.03.35-.29c.17.04-.09.2.04.35.37-.44.61.04.92-.26.27.75.87-.09,1.22.38l-.03-.18c.08-.18.11.1.17.14-.01-.14-.1-.16-.05-.25.72-.24,1.51.2,2.25.34.27.04.12-.93.48-.51l-.09.33c.53-.42,1.12-.03,1.65-.38-.03.08-.03.18-.08.18.12.24.42,0,.41-.2.08.02.03.18.08.27.12.14.27-.32.34-.08.01.04-.03.08-.05.1.07-.12.35.02.27-.26.21.12.38-.14.55.02.09-.31.35.14.37-.3,0,.45.37.35.49.13-.04.14.12.14.07.33.15-.01.28-.1.24-.33.29.53.52-.46.7.23.42-.26.82-.44,1.2-.56,0,.45-.43.06-.39.53.36-.2.56-.59.93-.5.1.06-.05.2-.08.28.36-.2.71.01,1.03-.24,0,.04-.03.09-.07.12.06-.02.15.06.14-.14l-.06.06c-.11-.29.23-.63.24-.79-.09.59.33.14.18.88.04-.04.09-.14.08-.28.06.04.09.12.03.28.23-.12.14-.33.35-.34,0,.1-.04.14-.06.26.1-.2.2-.39.38-.32,0,.06.01.14-.04.14.3-.04.5-.53.84-.36-.08.43.12.14.15.51l.18-.12-.08-.18c.16,0,.29-.28.43-.16l-.11.16.29-.08-.17-.14c.15-.2-.03-.47.18-.38-.04.04.16,0,.25.22,0,0,0,0,0,0,.07-.12.15-.25.27-.16.03.12,0,.41.01.49.07-.31.36-.1.45-.44-.03.08-.02.27-.01.31l.06-.26c.08.08.09.12.08.27.22.04-.09-.47.18-.28-.02.02,0,.06-.05.1.26.1.5-.18.74-.06.08.37-.21.1-.11.41.34-.08.7-.48,1.04-.4l-.06-.04c.03-.53.26.25.42,0-.04.04-.04.3-.03.24.23.08.46-.15.8-.33l-.04.14c.14.12.36.06.51.11.04-.14.12-.12.06-.31.48.76.84-.45,1.27.18-.05,0-.11.12-.07.12l.34-.14c-.04-.23-.05-.14-.13-.32.04-.14.13-.25.21-.25-.15.16.02.37.09.5-.01-.07,0-.15,0-.22.19.4.01-.47.27-.2v.12c.08-.07.16-.23.26-.2.05.27-.09.13-.09.35.14-.02.25-.52.39-.25-.06.08-.14.08-.2.16.15.31.16.23.26.27h-.01s.24.13.24.13l-.06-.08c.15-.7.35-.14.56-.6-.21.44-.03.25-.03.55.06.08.16.17.13.26.1-.25.19.19.33-.18.01.1.12,0,.1.25.14-.08-.04-.17-.03-.29.21-.34.53.38.83-.08.27-.2.3-.53.55-.7.09.15-.06.36-.06.36.14.14.25.11.37,0-.02.09,0,.16.05.26.1-.03.06-.36.2-.22-.02.11-.04.28-.09.4.12-.09.23-.28.36-.37.04.17-.07.26-.11.37.14-.08.36-.17.4-.44l-.1-.09c.05-.02.04.23,0,.28-.11.22-.18-.09-.19-.18l.09-.07c-.11-.57-.36.11-.54.08l.06-.42-.17.35c-.04-.11-.08-.34,0-.4-.14-.2-.11.15-.23-.07-.01-.04,0-.06,0-.07l-.12.13c.02-.09-.03-.29.05-.24-.24-.23-.36.33-.46.01l.02-.03c-.31.15-.02.31-.24.67l-.19-.75-.02.31s-.1-.03-.09-.15c-.11.21.03.13-.04.33-.17-.27-.43.15-.48-.34-.05.23.16.17,0,.34-.07-.52-.19.1-.34-.14.03-.27.18-.13.02-.37-.07.46-.28-.09-.4,0,0,.36-.26.16-.46.29,0-.12-.39-.19-.59-.31v-.06c-.02.37-.22.31-.36.39,0-.22.02-.31.09-.41h-.13c-.03.13-.07.19-.15.23l.02-.28c-.18.02-.35.34-.58.16,0,.26.21.71-.03.89-.01-.14-.03-.37.03-.43-.02.02-.07.12-.11.06l.09-.24c-.11-.1-.05.2-.13.18,0-.2-.07-.14-.06-.3.02-.02.08.08.1,0-.1-.03-.21-.14-.26-.29.01.11,0,.27-.06.29-.18.02-.07-.24-.18-.33-.04.14-.16,0-.15.3-.05,0-.07-.14-.09-.22-.09.13-.43.05-.31.36l.02.02s0,0-.01.01h0s0,0,0,0c-.29.3-.63-.14-.93,0v-.1c-.18.12-.4.08-.52.3-.05,0-.13-.18-.11-.29-.13.08-.15.19-.35.04.13-.18-.05-.15.14-.13-.18-.08-.23-.24-.41.04.06-.26-.15-.31-.23-.23l.13.18c-.09.04-.18.02-.26,0l.03-.33c-.38-.39-.63.71-.93.05-.09.24.2.16.13.43-.17-.04-.36-.51-.41-.51-.24-.18-.2.49-.44.38.03.12.08.43-.1.55-.17-.04-.22-.49-.12-.59.04-.01.06.03.06.07.05-.05.12-.1.05-.22l-.02.12c-.09-.12-.32-.1-.27-.29-.12.12-.05.2.05.25-.22-.16-.34,0-.56-.1.04.06.08.2.04.2-.33-.14-.13.23-.35.29-.13-.18.03-.43-.19-.27-.14-.12-.04-.31,0-.41-.19.24-.38-.14-.5-.17l.1-.1c-.06.06-.11.06-.17.06l.07.24c-.06-.04-.12-.04-.12-.14-.06.16.06.39-.06.61-.09-.12-.25.14-.29-.17.27.1-.04-.32.18-.37-.04.04-.09.04-.16,0-.01-.03,0-.07.02-.08-.26-.27-.1.36-.36.36.03-.18-.07-.33-.11-.29.1,0,.06.29-.03.43-.17-.13-.18.11-.26.1l.1.06c-.03.18-.11.16-.22.22-.01-.14.1-.1.06-.16-.12.32-.3-.31-.47-.1-.09-.12-.02-.33-.1-.41-.19.24-.23-.24-.43-.04.07.24.08.18-.06.42l.34-.18-.21.35c.1,0,.22-.16.28-.12-.1.2-.09.14-.03.33-.16-.35-.28.22-.45-.02l-.02-.59c-.26-.25-.43.32-.76.18l.11.1c-.03.24-.2.04-.3.14,0-.2-.07-.27-.11-.39.01.15-.24,0-.25.39l-.15-.25c-.27-.1-.28.57-.53.52.07-.22-.05-.35.11-.51-.08,0-.16-.03-.16.1-.05-.12-.22.27-.31.09-.03.09-.04.3-.13.28-.01-.04,0-.1,0-.1,0,.1-.14.14-.05.35-.28-.61-.72.07-.96-.45-.18.07-.4.14-.56.16,0-.06,0-.1.03-.08-.24-.18-.12.57-.39.38-.15-.31.13-.18.04-.3-.06-.65-.31.1-.5-.27l.04-.04c-.14-.22-.32.26-.54.22,0,0,0-.06,0-.1-.14.34-.42.46-.62.56.06-.26.09-.14.04-.39-.09.04.04.41-.14.49-.07-.14-.21-.25-.24-.53l.18-.02c-.1-.35-.23.02-.33-.04v-.16c-.26.06-.25.45-.55.44l.03.12c-.15.39-.14-.21-.29.08l-.06-.39c-.1.1-.36.39-.54.48.1-.3.31-.45.44-.63-.1,0-.36.04-.4.24.04-.04.09-.14.13-.08-.12.31-.28.47-.49.47,0-.77-.55-.17-.72-.76-.36.3-.74-.09-1.17-.03.17.59-.12.02-.08.63-.1.04-.14.03-.15,0l-.32-.35c-.08-.18.09-.14.08-.28-.22-.04-.1-.26-.25-.41.04.22-.06.32-.19.24l.19.28c-.29.34-.28-.5-.58-.17l.09-.2c-.15.12-.59.02-.72.51-.03-.07-.07-.24,0-.28-.38-.06-.82.55-1.13.26l.02-.15c-.07.05-.11.29-.21.14,0-.06.02-.15-.01-.16-.04.05-.18.27-.28.18l.07-.17c-.38-.18-.55.43-.86.54-.02-.44-.31-.57-.46-.64v-.06c-.43-.04-.72.39-1.11.58-.27-.47-.85-.17-1.25-.42.06.08,0,.34-.07.39-.1-.09-.25.31-.25-.09h.03c-.08-.39-.27-.27-.42-.28v.53c-.43-.75-1.02.32-1.26-.36-.09.14-.21.14-.3.27v-.28c-.27-.06-.4-.09-.72-.01l.06-.2c-.18-.01-.2.82-.37.85l-.07-.42c-.32.02-.65-.34-.96.05,0-.06,0-.18.06-.2-.15,0-.59-.26-.52.31-.02-.38-.33-.02-.5.15l.02-.28c-.13.36-.13.46-.33.56-.05-.03-.05-.22.02-.15-.17-.14-.12.27-.31.13l.07-.18c-.17-.02-.15.08-.23.29-.1.12-.32-.06-.35-.31-.02.15-.1.36-.2.29-.02-.09.02-.16.03-.18-.28-.18-.4.34-.6.07,0-.09-.02-.14-.04-.17.22,0,.4,0,.38.03,0-.26-.19-.3-.06-.66-.13.2-.36.63-.54.51,0-.02-.02-.05-.03-.09l.02-.03s-.08,0-.11.05c-.06-.04-.09-.07-.15-.07-.03-.21-.21-.11-.3-.11.02.28-.1.24.02.47-.01-.02.02-.03.07-.05.01,0,.03-.01.04-.03,0,0,0,.02,0,.02.06-.01.13-.02.22-.03-.06.15-.13.27-.24.12-.04.18-.08.37-.11.46-.14-.39-.38-.59-.42-.83-.26.17-.63.13-.78.66-.07.07-.09-.15-.13-.23.04-.05.1-.05.12-.13-.15.14-.45.07-.47.44-.2-.16.1-.34-.17-.27l.03-.11c-.54-.57-.81.97-1.42.24.04.04.06.07.07.13-.67-.31-1.35.36-2.02-.14-.19-.1-.2.14-.31.32l-.05-.3-.18.36c-.26.27-.5-.72-.83-.23l.05.2c-.13-.03-.39.13-.38-.1-.01.04-.03.21-.09.11v-.16s-.31.28-.31.28c-.24-.11.01-.63-.33-.65-.13.07-.35.47-.3.58.05,0,.14.09.15.25l-.11.09c0,.47-.08.95.22,1.26l.19-.29.07.22-.17.02c.1.21.16.02.22-.11.02.12.05.2.09.25l.18-.45c.03.18-.08.36.06.46.08-.21-.1-.4.04-.55.1.21.08.38.19.2.02.12,0,.2-.04.25.1-.15.26-.07.31-.32.11.26.34-.08.34.36.03-.11.16-.35.26-.37-.15.53.35.02.32.59.11-.48.44-.23.65-.5-.01.04-.03.12-.05.09.13.03.17.18.25.26,0-.39.19-.49.29-.73.17.37-.08.46-.01.82-.02-.32.25-.33.19-.59.13.23.1.11.18.43,0-.49.11-.09.19-.39.18.24.06.46.24.3.09.15-.06.33-.06.33ZM476.5,587.95s0,0,0,0c-.04,0-.07.01-.09.02.02,0,.04-.01.09-.02ZM476.87,587.93s-.1,0-.16,0c-.02-.1,0-.2.03-.19-.02.07.07.12.13.2ZM476.01,586.01c.06-.04.08.01.09.07-.03,0-.06.02-.1.04,0,.01,0,.02,0,.03,0-.05,0-.1.02-.14Z"/>
        <path class="cls-31" d="M475.92,586.39s-.01.02-.02.02c.01.02.03.04.04.06,0-.03.01-.06.02-.09-.01,0-.02,0-.03,0Z"/>
        <path class="cls-31" d="M509.52,585.57h0s.01.02.02.03c0-.01,0-.02,0-.03Z"/>
        <polygon class="cls-31" points="482 588.28 482 588.21 481.97 588.27 482 588.28"/>
        <path class="cls-31" d="M511.6,586.46s.01.05.03.07c0-.02-.01-.04-.03-.07Z"/>
        <path class="cls-31" d="M512.48,586.49l.13.1c-.06-.05-.1-.08-.13-.1Z"/>
        <path class="cls-31" d="M513.17,586.6s0-.09,0-.12c0,0,0,0,0,0v.12Z"/>
        <path class="cls-31" d="M502.4,587.33s-.02,0-.03.01c-.06.06-.02.03.03-.01Z"/>
        <path class="cls-31" d="M505.59,586.55c-.03.05-.06.1-.1.14.06.02.1.02.1-.14Z"/>
        <path class="cls-31" d="M498.83,587.8s0,0,0,0c0,0-.01,0-.02,0h.02Z"/>
        <path class="cls-31" d="M505.34,586.69c.06.05.11.04.15,0-.05-.02-.1-.04-.15,0Z"/>
        <path class="cls-31" d="M516.11,586.62h.03s0-.02,0-.03l-.04.03Z"/>
        <path class="cls-31" d="M516.14,586.59l.04-.03s-.03,0-.04.03Z"/>
        <path class="cls-31" d="M516.25,586.48l-.07.07s.06,0,.07-.07Z"/>
        <path class="cls-31" d="M515.21,586.52v.1s0-.05,0-.1Z"/>
        <path class="cls-31" d="M514.94,586.56c.07.02.17.21.26.14v-.08c-.03.15-.2-.24-.26-.06Z"/>
        <path class="cls-31" d="M513.75,585.35l.23.07c-.04-.11-.1-.25,0-.28-.3-.31.07.24-.23.21Z"/>
        <path class="cls-31" d="M513.04,585.22c.12-.05,0-.16,0-.22-.07.1-.09.13,0,.22Z"/>
        <path class="cls-31" d="M507.92,585.4v-.26c-.09.04,0,.1,0,.26Z"/>
        <polygon class="cls-31" points="506.99 586.76 507.08 586.91 507.12 586.68 506.99 586.76"/>
        <polygon class="cls-31" points="506.34 584.96 506.38 584.92 506.23 585.02 506.34 584.96"/>
        <path class="cls-31" d="M497.75,585.37l.04.31c.06-.06.06-.41-.04-.31Z"/>
        <path class="cls-31" d="M494.05,585.82c-.05-.16-.15-.25-.21-.1.08.02.17.14.21.1Z"/>
        <polygon class="cls-31" points="482.9 585.72 482.97 585.61 482.83 585.71 482.9 585.72"/>
      </g>
      <g>
        <line class="cls-18" x1="511.11" y1="638.71" x2="515.8" y2="585.85"/>
        <g>
          <path class="cls-31" d="M516.47,585.9c-.08-.04-.28-.04-.25.04l.32.08-.08-.13Z"/>
          <path class="cls-31" d="M515.81,586.37c.15.1.42.23.73.2-.31-.12-.17-.13-.54-.26-.03-.08.12-.12.24-.1-.08-.03.08-.11-.12-.17-.26.08-.29.2-.09.35-.07.02-.16-.01-.22-.03Z"/>
          <path class="cls-31" d="M514.63,593.82l.04-.04s-.04.03-.04.04Z"/>
          <path class="cls-31" d="M514.04,598.45s-.04-.05-.07-.06c.02.03.04.06.07.06Z"/>
          <path class="cls-31" d="M513.6,599.21s.02-.03.03-.04c-.03.02-.05.03-.03.04Z"/>
          <path class="cls-31" d="M514.63,593.82l-.11.11c.11.02.09-.06.11-.11Z"/>
          <path class="cls-31" d="M516.51,587.47s-.04-.05-.08-.08c.01.02.02.04.03.07.02,0,.03,0,.05,0Z"/>
          <path class="cls-31" d="M514.54,591.75v-.04s-.08-.03-.13-.04l.13.08Z"/>
          <path class="cls-31" d="M514.63,590.17s.26.07.38.1c-.11-.03-.17-.06-.18-.09-.05,0-.12,0-.2,0Z"/>
          <path class="cls-31" d="M515.35,587.72l-.03-.05s.02.03.03.05Z"/>
          <path class="cls-31" d="M514.38,592.87s-.08,0-.1,0c.04,0,.07,0,.1,0Z"/>
          <path class="cls-31" d="M512.58,637s-.03,0-.05,0c.03.01.05.02.05,0Z"/>
          <path class="cls-31" d="M511.03,638.7v-.03c-.07,0-.12-.01-.17-.02l.17.05Z"/>
          <path class="cls-31" d="M513.11,600.63s0,0,0,0c-.03-.04-.02-.02,0,0Z"/>
          <path class="cls-31" d="M512.14,613.97c.26-.13.3.27.6.07-.11.01-.42-.25-.6-.07Z"/>
          <path class="cls-31" d="M516.47,587.51s0,.04,0,.06c.01-.03.01-.05,0-.06Z"/>
          <path class="cls-31" d="M512.73,614.04s0,0,0,0l.03-.02s-.02.01-.03.02Z"/>
          <path class="cls-31" d="M512.99,603.99s.09-.01.13-.02c-.03,0-.06,0-.13.02Z"/>
          <path class="cls-31" d="M513.61,601.53l-.04.06s.04-.04.04-.06Z"/>
          <path class="cls-31" d="M513.27,605.31s-.06.04-.03.09c.01,0,.03,0,.04-.01-.04-.02-.05-.04,0-.08Z"/>
          <path class="cls-31" d="M513.15,606.66s.04-.01.06-.02c0-.01,0-.03-.01-.04l-.05.06Z"/>
          <path class="cls-31" d="M512.81,632.9c-.08.02-.17.03-.26.04.2,0,.25.2.26-.04Z"/>
          <path class="cls-31" d="M516.36,587.46c.07.01.1.03.12.05,0-.02,0-.03-.01-.05-.04,0-.08-.01-.11,0Z"/>
          <path class="cls-31" d="M515.47,605.57l-.06.21c.03-.06.05-.13.06-.21Z"/>
          <path class="cls-31" d="M513.63,623.24l.03.05s0-.04-.03-.05Z"/>
          <path class="cls-31" d="M515.39,606.41c-.1.03-.16.06-.2.1.02.01.04.02.07.03l.13-.13Z"/>
          <path class="cls-31" d="M512.55,632.94s0,0,0,0c0,0,0,0,0,0Z"/>
          <path class="cls-31" d="M513.09,634.41c.03-.2-.35-.13-.56-.19-.08-.25.28-.09.48-.15-.08-.16-.41-.31-.39-.42.06,0,.09-.02.16,0-.28-.19.03-.48-.32-.7.03-.01.07-.02.09-.02-.19.01-.37,0-.51-.02,0-.09-.22-.19.03-.2-.01.06.08.07.16.1l-.1-.11c.35-.06.11.14.36.16-.1-.2-.36-.44-.25-.57.34,0,.08.34.4.18l-.15.21c.55-.12-.05.13.54.03.12-.28-.14-.34-.02-.62-.18-.08-.28,0-.46-.09-.3-.44.88-.25.46-.59-.22-.1-.64-.17-.4-.36l.38.11c.06-.28-.54-.21-.25-.48.15.07.11.23.16.19.32-.16-.2-.15-.19-.3h.34c-.03-.31-.24-.66-.27-1,.1.03.2.09.31.03-.13-.43.12-.89.36-1.28l-.28-.18s.14-.05.19-.01c.12-.15-.18-.02-.29-.11-.01-.09.18-.1.26-.04-.22-.3-.46-.84-.12-1.11l.08.06c.14-.22-.58-.31-.28-.5l.05.05c.17-.48-.05-1.06.43-1.39-.41-.11.23-.47-.35-.56.32-.26.41-.17.65-.55.04-.1-.35-.19-.4-.33l.31.02-.31-.21.38-.06-.07-.13s-.15.09-.23.08c-.12-.21.26-.45.41-.44l-.22-.48c.12.02.16.1.23.17-.29-.27.33-.02.06-.26-.07.02-.18-.03-.24-.04.2-.09.22-.35.16-.54l.21.05c.08-.33-.04-.72,0-1.1-.11.13-.47.06-.5-.05l.33-.02c-.19-.09-.13.11-.36-.06.05-.14.38-.06.48.03l-.1-.18c.1,0,.15.04.27.07-.2-.09.35-.27.01-.4h.1c.04-.38-.06-.56-.05-.87-.28-.03-.21-.15-.42-.26.11-.22.35-.45.35-.73-.12-.2-.23-.08-.39-.18.26,0,.26-.27.43-.11-.01-.33-.01-.42-.18-.86-.11.04-.16.08-.24.05-.04-.08.12-.16.24-.14l.02.02c-.34-.5.84-1.01.34-1.43l.02.02-.24-.41c.06-.17.18.12.35,0-.39-.45.12-.65-.13-1.02.78-.2.03-.94.54-1.26h-.18c-.17-.1.11-.1.16-.16-.14,0-.17.09-.26.02-.14-.8.4-1.59.63-2.38.07-.29-.9-.25-.45-.58l.32.13c-.34-.63.12-1.21-.16-1.82.07.04.17.05.17.11.25-.1.05-.45-.14-.47.03-.09.18,0,.28-.05.15-.11-.28-.34-.03-.38.04,0,.07.04.09.07-.11-.09.06-.37-.22-.32.15-.21-.09-.43.09-.59-.3-.14.18-.36-.25-.43.45.06.4-.35.2-.51.13.06.15-.11.34-.04,0-.16-.06-.31-.3-.3.56-.24-.38-.62.32-.72-.2-.49-.33-.93-.39-1.36.45.06,0,.47.48.49-.15-.41-.52-.68-.37-1.06.07-.1.19.08.26.12-.15-.41.11-.77-.1-1.14.04,0,.08.05.12.09,0-.07.08-.16-.12-.17l.05.07c-.31.08-.59-.33-.75-.36.57.17.18-.34.9-.08-.03-.05-.13-.12-.26-.12.05-.06.13-.08.28,0-.09-.26-.31-.19-.29-.42.1,0,.13.06.25.09-.18-.13-.37-.26-.26-.45.06.02.14,0,.13.06,0-.33-.46-.61-.25-.95.42.14.15-.11.53-.1l-.09-.2-.19.06c.02-.17-.24-.34-.1-.48l.14.14-.04-.32-.16.17c-.18-.19-.47-.02-.35-.24.03.05.02-.17.25-.24,0,0,0,0,0,0-.11-.09-.23-.19-.12-.31.12-.02.41.06.49.05-.3-.11-.05-.41-.37-.54.07.04.27.06.31.05l-.25-.09c.09-.07.13-.08.28-.05.07-.23-.48.03-.25-.23.02.02.06.02.09.07.13-.27-.11-.56.04-.81.38-.04.07.23.4.17-.03-.38-.38-.81-.26-1.17l-.05.06c-.52-.1.28-.25.05-.45.04.05.29.08.23.07.11-.24-.08-.52-.22-.91l.13.06c.13-.14.1-.38.18-.53-.13-.06-.1-.15-.3-.11.82-.42-.33-.96.35-1.34,0,.05.11.13.11.09l-.09-.38c-.23,0-.14.04-.33.1-.13-.06-.23-.17-.22-.26.14.18.37.03.5-.03-.07,0-.15-.03-.22-.03.43-.16-.46-.07-.16-.31l.12.02c-.05-.1-.2-.21-.16-.31.27-.02.11.12.33.14,0-.15-.48-.34-.2-.45.07.07.06.16.13.23.33-.12.25-.14.31-.25h0s.16-.23.16-.23l-.09.06c-.68-.25-.09-.39-.53-.68.41.28.25.06.55.11.09-.06.19-.15.27-.11-.23-.14.21-.18-.13-.38.1,0,.02-.13.26-.08-.06-.16-.17.02-.29,0-.31-.27.45-.52.03-.9-.16-.31-.48-.39-.62-.68.16-.08.35.11.35.11.16-.14.14-.25.04-.4.08.04.16.01.27-.02-.02-.11-.35-.11-.19-.24.11.04.28.08.38.15-.08-.14-.25-.29-.32-.43.17-.02.25.11.36.16-.06-.16-.12-.41-.38-.48l-.1.09c0-.06.23,0,.28.04.2.15-.11.18-.21.18l-.05-.1c-.58.05.06.4,0,.59l-.41-.12.33.23c-.11.03-.35.04-.4-.06-.22.12.14.14-.1.24-.04.01-.06,0-.07-.01l.11.15c-.08-.03-.29,0-.23-.08-.26.23.28.43-.05.49l-.02-.02c.11.36.3.06.64.35l-.77.11.3.06s-.04.1-.16.08c.2.15.13-.01.32.08-.29.15.09.48-.4.48.23.08.19-.15.34.05-.53,0,.07.22-.18.35-.26-.07-.11-.21-.36-.07.45.13-.13.29-.05.43.36.04.13.3.23.53-.12-.02-.24.4-.38.59h-.06c.36.06.27.27.34.43-.22-.03-.3-.06-.39-.15v.14c.1.04.16.1.19.19l-.27-.06c0,.19.29.42.08.65.25.04.73-.13.87.14-.14,0-.38-.01-.43-.09.02.02.11.09.04.13l-.22-.13c-.11.1.19.08.16.16-.2-.02-.15.05-.3.03-.02-.02.09-.07.01-.11-.04.1-.17.21-.32.24.11,0,.26.02.28.1,0,.19-.24.04-.35.15.13.06-.02.17.27.2,0,.06-.14.05-.23.07.12.11,0,.47.32.38l.02-.02s0,.01.01.02h0s0,0,0,0c.26.35-.23.66-.13,1h-.1c.1.19.03.43.23.58,0,.06-.19.12-.31.08.06.15.17.18-.01.38-.16-.16-.16.04-.11-.16-.1.18-.26.21-.01.44-.25-.09-.33.12-.26.21l.19-.12c.03.11,0,.19-.03.28l-.33-.08c-.44.36.62.77-.08,1.01.22.12.18-.2.45-.08-.06.18-.55.32-.56.38-.21.23.46.27.32.52.12-.02.44-.03.53.18-.06.18-.52.18-.6.06,0-.04.03-.06.07-.06-.04-.06-.08-.14-.22-.08l.12.03c-.13.08-.14.33-.33.25.1.15.19.08.26-.02-.19.22-.04.36-.17.59.07-.03.21-.05.21-.02-.18.34.21.17.24.42-.19.12-.43-.09-.3.17-.14.13-.32,0-.41-.06.21.24-.19.39-.24.51l-.09-.12c.05.07.04.13.04.19l.24-.04c-.05.06-.05.12-.15.11.15.08.4-.02.6.14-.13.08.1.28-.21.29.13-.27-.32,0-.35-.24.03.05.03.11-.02.17-.04,0-.06-.02-.08-.04-.3.25.34.16.31.43-.17-.05-.34.04-.31.08.01-.11.3-.03.43.09-.15.17.09.2.06.3l.07-.1c.17.05.14.14.19.27-.14,0-.08-.12-.15-.08.3.17-.35.29-.16.5-.13.08-.33-.02-.42.05.21.24-.26.21-.09.46.24-.04.19-.06.4.12l-.13-.39.32.27c.01-.11-.13-.25-.08-.32.18.13.13.11.33.08-.37.12.18.33-.08.48l-.59-.06c-.29.25.26.5.08.84l.11-.1c.23.07.01.22.1.34-.2-.03-.27.04-.4.07.15,0-.04.25.35.32l-.27.13c-.13.27.53.37.44.64-.21-.1-.36.01-.49-.19-.01.09-.05.17.08.18-.13.04.24.27.05.34.08.05.29.08.26.18-.04,0-.1,0-.1,0,.1,0,.12.17.34.1-.64.22-.02.78-.57.98.05.2.09.45.09.63-.06-.02-.1,0-.07-.04-.2.23.55.2.32.47-.33.12-.16-.16-.29-.09-.65-.02.06.35-.34.5l-.03-.05c-.23.13.21.38.15.61,0,0-.06-.02-.1-.01.32.19.4.51.47.74-.25-.09-.12-.12-.39-.09.03.11.42,0,.47.22-.14.05-.28.19-.55.19v-.19c-.36.07,0,.25-.08.35l-.15-.03c.02.3.42.34.36.65l.12-.02c.37.21-.23.13.04.32l-.4.02c.08.12.34.43.4.64-.28-.14-.41-.39-.57-.56-.01.11,0,.39.18.46-.03-.05-.13-.11-.06-.15.3.17.43.36.41.59-.76-.11-.24.57-.85.68.25.42-.19.78-.19,1.25.61-.11,0,.14.62.16.03.11.02.15-.02.16l-.39.3c-.18.06-.13-.11-.26-.12-.07.23-.27.08-.44.22.22-.01.3.11.21.24l.3-.17c.29.36-.54.24-.25.6l-.18-.12c.1.18-.06.63.41.84-.07.02-.24.05-.28-.03-.11.4.44.96.11,1.25l-.15-.04c.04.08.27.16.11.24-.06-.01-.15-.04-.16,0,.05.04.24.23.15.32l-.16-.1c-.23.38.35.65.43.99-.44-.04-.61.26-.69.41h-.06c-.1.45.29.81.43,1.26-.5.22-.28.89-.58,1.29.09-.06.34.04.38.12-.1.09.28.31-.12.25v-.04c-.39.04-.3.26-.33.42l.52.07c-.8.36.18,1.13-.52,1.3.12.11.11.24.23.35l-.28-.03c-.1.28-.15.41-.11.77l-.2-.09c-.04.2.79.32.79.5l-.43.02c-.02.34-.42.66-.07,1.03-.06-.01-.18-.03-.19-.09-.03.16-.34.6.24.59-.38-.03-.07.35.08.55l-.27-.05c.34.19.44.2.52.43-.04.05-.23.03-.15-.04-.16.16.25.16.08.35l-.17-.09c-.04.18.06.17.26.29.1.12-.1.33-.35.34.15.04.35.15.27.25-.1,0-.15-.04-.18-.06-.22.28.28.47,0,.65-.09,0-.14,0-.17.02.03-.24.06-.42.08-.41-.26-.02-.32.16-.66-.02.18.17.58.47.44.65-.03,0-.05.01-.09.02l-.03-.02s0,.08.03.12c-.05.06-.08.09-.09.15-.21,0-.13.21-.15.3.28.02.22.14.47.04-.02.01-.03-.02-.04-.09,0-.02,0-.03-.03-.04,0,0,.02,0,.02,0,0-.06,0-.15,0-.24.14.09.25.18.08.27.18.06.36.14.44.17-.4.1-.64.33-.88.34.13.3.04.69.55.92.06.09-.16.08-.24.11-.05-.05-.04-.11-.11-.14.12.18,0,.49.37.57-.18.19-.33-.15-.29.14l-.11-.05c-.64.51.86,1,.05,1.56.05-.04.07-.06.14-.06-.4.68.18,1.49-.41,2.15-.12.19.11.23.28.37l-.3.02.33.24c.23.32-.78.45-.34.86l.21-.03c-.05.13.08.44-.15.39.04.02.21.06.1.11h-.16s.24.34.24.34c-.14.25-.62-.1-.68.27.05.14.42.44.53.39.01-.06.11-.13.27-.12l.07.13c.46.06.93.2,1.28-.08l-.26-.24.23-.05v.18c.22-.08.04-.17-.08-.25.12,0,.21-.03.26-.07l-.42-.25c.18,0,.35.13.46,0-.2-.12-.42.06-.54-.12.22-.09.39-.04.22-.18.12,0,.19.03.24.08-.13-.12-.04-.29-.28-.37.27-.09-.04-.37.4-.32-.1-.04-.33-.22-.34-.32.51.23.06-.37.62-.27-.46-.18-.17-.51-.41-.77.04.02.11.05.08.07.05-.13.2-.16.29-.24-.39-.05-.46-.27-.69-.4.39-.13.45.14.82.12-.32-.02-.29-.31-.56-.28.24-.11.12-.1.45-.13-.49-.07-.07-.12-.36-.26.26-.16.46,0,.33-.22.16-.08.32.11.32.11ZM512.67,629.57s0,0,0,0c0,.04,0,.08,0,.1,0-.02,0-.05-.01-.1ZM512.7,629.17s-.02.11-.03.17c-.1,0-.2-.02-.19-.06.06.03.13-.06.21-.11ZM510.69,629.85c-.03-.07.02-.08.08-.09,0,.03,0,.07.02.11.01,0,.02,0,.03.01-.05-.01-.1-.02-.14-.04Z"/>
          <path class="cls-31" d="M511.04,629.99s.02.02.02.03c.03-.01.05-.02.07-.03-.03-.01-.06-.02-.09-.03,0,.01,0,.02,0,.03Z"/>
          <path class="cls-31" d="M514.68,593.76h0s.02,0,.04,0c-.01,0-.02,0-.03,0Z"/>
          <polygon class="cls-31" points="513.73 623.7 513.66 623.69 513.72 623.73 513.73 623.7"/>
          <path class="cls-31" d="M515.84,591.65s.05,0,.07-.02c-.02,0-.05,0-.07.02Z"/>
          <path class="cls-31" d="M515.98,590.7l.11-.13c-.06.05-.09.09-.11.13Z"/>
          <path class="cls-31" d="M516.19,589.98s-.09-.02-.12-.02c0,0,0,0,0,0l.12.02Z"/>
          <path class="cls-31" d="M515.48,601.65s0,.02.01.03c.05.07.03.02-.01-.03Z"/>
          <path class="cls-31" d="M515.14,598.13s.09.08.12.12c.03-.06.04-.11-.12-.12Z"/>
          <path class="cls-31" d="M515.48,605.54s0,0,0,0c0,0,0,.02,0,.02v-.02Z"/>
          <path class="cls-31" d="M515.24,598.41c.06-.06.05-.11.02-.16-.02.05-.06.11-.02.16Z"/>
          <path class="cls-31" d="M516.6,586.82v-.03s-.02,0-.03,0l.03.04Z"/>
          <path class="cls-31" d="M516.57,586.78l-.03-.04s0,.03.03.04Z"/>
          <path class="cls-31" d="M516.47,586.65l.06.09s.02-.06-.06-.09Z"/>
          <path class="cls-31" d="M516.38,587.78l.1.02s-.05-.01-.1-.02Z"/>
          <path class="cls-31" d="M516.38,588.07c.03-.07.23-.16.18-.26l-.08-.02c.15.06-.26.19-.1.28Z"/>
          <path class="cls-31" d="M515.02,589.19l.1-.24c-.11.03-.26.08-.28-.04-.35.28.25-.04.18.28Z"/>
          <path class="cls-31" d="M514.8,589.94c-.04-.14-.16-.01-.22-.02.09.09.11.12.22.02Z"/>
          <path class="cls-31" d="M514.3,595.47l-.25-.04c.03.11.1,0,.25.04Z"/>
          <polygon class="cls-31" points="515.53 596.64 515.69 596.56 515.46 596.49 515.53 596.64"/>
          <polygon class="cls-31" points="513.66 597.11 513.62 597.06 513.7 597.24 513.66 597.11"/>
          <path class="cls-31" d="M512.92,606.4h.32c-.05-.08-.4-.12-.32,0Z"/>
          <path class="cls-31" d="M512.89,610.44c-.16.03-.27.13-.12.22.03-.09.16-.17.12-.22Z"/>
          <polygon class="cls-31" points="511.31 622.41 511.21 622.32 511.28 622.48 511.31 622.41"/>
        </g>
      </g>
    </g>
    <text class="cls-28" transform="translate(281.81 735.96)"><tspan class="cls-34" x="0" y="0">1</tspan><tspan x="5.55" y="0">1</tspan></text>
    <text class="cls-28" transform="translate(200.9 255.75)"><tspan class="cls-34" x="0" y="0">1</tspan><tspan x="5.55" y="0">1</tspan></text>
    <text class="cls-28" transform="translate(385.74 481.33)"><tspan x="0" y="0">9</tspan></text>
    <text class="cls-28" transform="translate(452.69 836.06)"><tspan x="0" y="0">120</tspan></text>
    <text class="cls-28" transform="translate(680.76 859.08)"><tspan x="0" y="0">1</tspan></text>
  </g>
  <g id="légende_fond">
    <rect x="571.05" y="368.7" width="328.82" height="135.25"/>
  </g>
  <g id="légende_voiture">
    <text class="cls-4" transform="translate(644.79 465.91)"><tspan class="cls-30" x="0" y="0">T</tspan><tspan x="9.74" y="0">otal of electric cars</tspan></text>
    <g>
      <circle class="cls-18" cx="603.31" cy="465.91" r="5.93"/>
      <circle class="cls-18" cx="624.43" cy="465.91" r="5.93"/>
      <path class="cls-18" d="M596.52,464.35h31.94c-1.43.98,12.71-3.17,5.57-10.08-2.45-2.38-5.18-2.21-5.25-1.96-.5,1.77-16.81-19.59-34.72-.28-.58.62-.5,1.63-.5,2.48v6.89c0,1.63,1.33,2.96,2.96,2.96Z"/>
    </g>
  </g>
  <g id="légende_infra">
    <text class="cls-4" transform="translate(644.34 418.71)"><tspan x="0" y="0">Present infrastructures</tspan></text>
    <circle class="cls-7" cx="613.81" cy="409.84" r="11.05"/>
  </g>
  <g id="source">
    <text transform="translate(0 992.93)"><tspan><tspan class="cls-5" x="0" y="0">Sou</tspan><tspan class="cls-1" x="29.02" y="0">r</tspan><tspan class="cls-5" x="36.69" y="0">ce : </tspan><tspan class="cls-28" x="67.66" y="0">Data Gouv : Consolidated file of cha</tspan><tspan class="cls-2" x="244.28" y="0">r</tspan><tspan class="cls-28" x="248.06" y="0">ging points for electric vehicles I</tspan><tspan class="cls-27" x="406.34" y="0">R</tspan><tspan class="cls-28" x="413.38" y="0">VE</tspan></tspan></text>
  </g>
  <g id="titre">
    <text class="cls-6" transform="translate(611.44 132.02)"><tspan class="cls-29" x="0" y="0">T</tspan><tspan x="20.71" y="0">otal numbe</tspan><tspan class="cls-3" x="193.73" y="0">r</tspan><tspan x="209.06" y="0" xml:space="preserve"> of </tspan><tspan x="-25.15" y="43.2">infrastructu</tspan><tspan class="cls-3" x="160.83" y="43.2">r</tspan><tspan x="176.16" y="43.2">es and </tspan><tspan x="1.43" y="86.4">electric cars pe</tspan><tspan class="cls-3" x="231.28" y="86.4">r</tspan><tspan x="246.61" y="86.4"> </tspan><tspan x="-34.81" y="129.6">inte</tspan><tspan class="cls-34" x="23.18" y="129.6">r</tspan><tspan x="37.82" y="129.6">-municipality in </tspan><tspan x="53.87" y="172.8">the Loi</tspan><tspan class="cls-3" x="162.87" y="172.8">r</tspan><tspan x="178.2" y="172.8">e</tspan></text>
    <text class="cls-5" transform="translate(691.97 352.27)"><tspan x="0" y="0">2020 - 2024</tspan></text>
  </g>
  <g id="voiture_17_014">
    <g>
      <circle cx="168.5" cy="177.13" r="13.81"/>
      <circle cx="217.67" cy="177.13" r="13.81"/>
      <path d="M152.71,173.5h74.34c-3.34,2.29,29.57-7.38,12.96-23.47-5.71-5.53-12.05-5.13-12.21-4.57-1.16,4.12-39.11-45.6-80.82-.66-1.35,1.45-1.16,3.78-1.16,5.76v16.04c0,3.8,3.08,6.89,6.89,6.89Z"/>
      <text class="cls-21" transform="translate(159.59 158.59)"><tspan x="0" y="0">17 014</tspan></text>
    </g>
  </g>
  <g id="voiture_2_796">
    <g>
      <circle cx="351.7" cy="160.85" r="8.1"/>
      <circle cx="380.56" cy="160.85" r="8.1"/>
      <path d="M342.43,158.72h43.63c-1.96,1.35,17.36-4.33,7.61-13.77-3.35-3.25-7.07-3.01-7.17-2.68-.68,2.42-22.96-26.76-47.44-.39-.79.85-.68,2.22-.68,3.38v9.42c0,2.23,1.81,4.04,4.04,4.04Z"/>
      <text class="cls-26" transform="translate(350.82 149.96)"><tspan x="0" y="0">2 796</tspan></text>
    </g>
  </g>
  <g id="voiture_3968">
    <g>
      <circle cx="680.76" cy="810.33" r="8.1"/>
      <circle cx="709.63" cy="810.33" r="8.1"/>
      <path d="M671.49,808.2h43.63c-1.96,1.35,17.36-4.33,7.61-13.77-3.35-3.25-7.07-3.01-7.17-2.68-.68,2.42-22.96-26.76-47.44-.39-.79.85-.68,2.22-.68,3.38v9.42c0,2.23,1.81,4.04,4.04,4.04Z"/>
      <text class="cls-26" transform="translate(679.88 799.45)"><tspan x="0" y="0">3 968</tspan></text>
    </g>
  </g>
  <g id="voiture_619">
    <g>
      <circle cx="99.02" cy="336.31" r="8.47"/>
      <circle cx="129.2" cy="336.31" r="8.47"/>
      <path d="M89.33,334.08h45.62c-2.05,1.41,18.15-4.53,7.95-14.4-3.51-3.4-7.4-3.15-7.5-2.8-.71,2.53-24-27.98-49.6-.41-.83.89-.71,2.32-.71,3.54v9.84c0,2.33,1.89,4.23,4.23,4.23Z"/>
      <text class="cls-23" transform="translate(100.63 324.93)"><tspan x="0" y="0">619</tspan></text>
    </g>
  </g>
  <g id="voiture_751">
    <g>
      <circle cx="236.03" cy="386.87" r="7.59"/>
      <circle cx="263.06" cy="386.87" r="7.59"/>
      <path d="M227.35,384.87h40.86c-1.84,1.26,16.25-4.05,7.12-12.9-3.14-3.04-6.62-2.82-6.71-2.51-.64,2.27-21.5-25.06-44.42-.36-.74.8-.64,2.08-.64,3.17v8.82c0,2.09,1.69,3.79,3.79,3.79Z"/>
      <text class="cls-25" transform="translate(237.47 376.68)"><tspan x="0" y="0">751</tspan></text>
    </g>
  </g>
  <g id="voiture_1947">
    <g>
      <circle cx="349.81" cy="302.84" r="8.1"/>
      <circle cx="378.68" cy="302.84" r="8.1"/>
      <path d="M340.54,300.71h43.63c-1.96,1.35,17.36-4.33,7.61-13.77-3.35-3.25-7.07-3.01-7.17-2.68-.68,2.42-22.96-26.76-47.44-.39-.79.85-.68,2.22-.68,3.38v9.42c0,2.23,1.81,4.04,4.04,4.04Z"/>
      <text class="cls-26" transform="translate(348.93 291.96)"><tspan x="0" y="0">1 947</tspan></text>
    </g>
  </g>
  <g id="voiture_18930">
    <g>
      <circle cx="204.08" cy="608.02" r="16.54"/>
      <circle cx="262.97" cy="608.02" r="16.54"/>
      <path d="M185.17,603.68h89.03c-4,2.74,35.42-8.83,15.52-28.1-6.84-6.63-14.44-6.15-14.63-5.47-1.39,4.94-46.84-54.61-96.79-.79-1.61,1.74-1.39,4.53-1.39,6.9v19.21c0,4.56,3.69,8.25,8.25,8.25Z"/>
      <text class="cls-20" transform="translate(198.2 585.82)"><tspan x="0" y="0">18 930</tspan></text>
    </g>
  </g>
  <g id="voiture_10_757">
    <g>
      <circle cx="375.63" cy="536.68" r="10.11"/>
      <circle cx="411.63" cy="536.68" r="10.11"/>
      <path d="M364.07,534.03h54.41c-2.44,1.68,21.65-5.4,9.49-17.18-4.18-4.05-8.82-3.76-8.94-3.34-.85,3.02-28.63-33.38-59.16-.48-.99,1.06-.85,2.77-.85,4.22v11.74c0,2.78,2.26,5.04,5.04,5.04Z"/>
      <text class="cls-19" transform="translate(369.04 523.11)"><tspan x="0" y="0">10 757</tspan></text>
    </g>
  </g>
  <g id="voiture_715">
    <g>
      <circle cx="478.96" cy="576.54" r="7.98"/>
      <circle cx="507.39" cy="576.54" r="7.98"/>
      <path d="M469.83,574.44h42.98c-1.93,1.32,17.1-4.26,7.49-13.57-3.3-3.2-6.97-2.97-7.06-2.64-.67,2.38-22.61-26.36-46.72-.38-.78.84-.67,2.19-.67,3.33v9.27c0,2.2,1.78,3.98,3.98,3.98Z"/>
      <text class="cls-24" transform="translate(480.47 565.82)"><tspan x="0" y="0">715</tspan></text>
    </g>
  </g>
  <g id="voiture_62_806">
    <g>
      <circle cx="517.92" cy="782.35" r="23.49"/>
      <circle cx="601.56" cy="782.35" r="23.49"/>
      <path d="M491.06,776.18h126.44c-5.68,3.9,50.3-12.55,22.05-39.91-9.72-9.41-20.5-8.73-20.77-7.77-1.98,7.01-66.53-77.56-137.46-1.12-2.29,2.47-1.97,6.44-1.97,9.8v27.29c0,6.47,5.25,11.72,11.72,11.72Z"/>
      <text class="cls-22" transform="translate(506.82 752.3)"><tspan x="0" y="0">62 806</tspan></text>
    </g>
  </g>
  <g id="voiture_2413">
    <g>
      <circle cx="547.74" cy="931.85" r="8.1"/>
      <circle cx="576.6" cy="931.85" r="8.1"/>
      <path d="M538.47,929.72h43.63c-1.96,1.35,17.36-4.33,7.61-13.77-3.35-3.25-7.07-3.01-7.17-2.68-.68,2.42-22.96-26.76-47.44-.39-.79.85-.68,2.22-.68,3.38v9.42c0,2.23,1.81,4.04,4.04,4.04Z"/>
      <text class="cls-26" transform="translate(544.86 920.96)"><tspan x="0" y="0">2 413</tspan></text>
    </g>
  </g>
</svg>